<?xml version="1.0" standalone="no"?>
<!DOCTYPE svg PUBLIC "-//W3C//DTD SVG 1.1//EN" "http://www.w3.org/Graphics/SVG/1.1/DTD/svg11.dtd" >
<svg>
<metadata>
Created by FontForge 20120731 at Tue Feb 12 07:22:01 2019
 By www-data
(c) Copyright 2005 by Tong Duc Thinh. All Rights Reserved
</metadata>
<defs>
<font id="SFUFuturaBook" horiz-adv-x="616" >
  <font-face 
    font-family="SFU Futura"
    font-weight="400"
    font-stretch="normal"
    units-per-em="1000"
    panose-1="0 0 4 0 0 0 0 0 0 0"
    ascent="800"
    descent="-200"
    x-height="470"
    cap-height="754"
    bbox="-161 -293 1178 1165"
    underline-thickness="75"
    underline-position="-113"
    unicode-range="U+0020-F002"
  />
<missing-glyph horiz-adv-x="500" 
d="M63 0v1134h375v-1134h-375zM125 63h250v1009h-250v-1009z" />
    <glyph glyph-name=".notdef" horiz-adv-x="500" 
d="M63 0v1134h375v-1134h-375zM125 63h250v1009h-250v-1009z" />
    <glyph glyph-name=".null" horiz-adv-x="0" 
 />
    <glyph glyph-name="glyph2" horiz-adv-x="308" 
 />
    <glyph glyph-name="space" unicode=" " horiz-adv-x="308" 
 />
    <glyph glyph-name="exclam" unicode="!" horiz-adv-x="338" 
d="M169 99q23 0 39.5 -16t16.5 -39t-16.5 -40t-39.5 -17t-39.5 17t-16.5 40t16.5 39t39.5 16zM128 153v601h82v-601h-82z" />
    <glyph glyph-name="quotedbl" unicode="&#x22;" horiz-adv-x="457" 
d="M102 754h94l-18 -328h-58zM261 754h94l-18 -328h-58z" />
    <glyph glyph-name="numbersign" unicode="#" 
d="M236 754h77l-36 -204h124l35 204h79l-35 -204h92v-78h-105l-29 -171h101v-78h-115l-40 -223h-76l39 223h-123l-42 -223h-75l39 223h-102v78h115l29 171h-107v78h119zM266 472l-29 -171h123l29 171h-123z" />
    <glyph glyph-name="dollar" unicode="$" 
d="M356 344v-268q47 16 74.5 54.5t27.5 88.5q0 76 -102 125zM290 463v219q-40 -8 -66.5 -40t-26.5 -73q0 -64 93 -106zM290 69v305q-82 35 -122 72q-55 51 -55 126q0 76 50 127t127 62v103h66v-103q108 -14 158 -114l-66 -43q-38 67 -92 77v-247q90 -38 130 -77
q56 -54 56 -136q0 -84 -52 -146.5t-134 -79.5v-110h-66v104q-81 4 -141.5 58.5t-74.5 135.5l81 23q7 -53 45 -93t90 -44z" />
    <glyph glyph-name="percent" unicode="%" horiz-adv-x="797" 
d="M200 767q70 0 119 -47.5t49 -117.5q0 -69 -49 -116.5t-119 -47.5t-119 47t-49 117t49 117.5t119 47.5zM200 703q-42 0 -73 -29.5t-31 -71.5t31 -71t73 -29t73 29t31 71t-31 71.5t-73 29.5zM597 767l40 -24l-436 -756l-43 26zM598 316q70 0 119 -47.5t49 -117.5
q0 -69 -49 -116.5t-119 -47.5t-119 47t-49 117t49 117.5t119 47.5zM598 252q-42 0 -73 -29.5t-31 -71.5t31 -71t73 -29t73 29t31 71t-31 71.5t-73 29.5z" />
    <glyph glyph-name="ampersand" unicode="&#x26;" horiz-adv-x="695" 
d="M302 492l7 5q52 37 64 50q30 32 30 72q0 34 -24 55.5t-58 21.5q-35 0 -59 -24t-24 -59q0 -25 15 -51q5 -9 31 -45zM581 0l-81 106q-133 -119 -241 -119q-89 0 -153 58q-67 60 -67 148q0 85 57 148q33 37 128 100l9 6q-39 54 -50 74q-25 45 -25 86q0 72 46.5 116t118.5 44
q66 0 112 -40q48 -43 48 -108q0 -60 -42 -109q-24 -28 -91 -79l159 -203l85 99l61 -50l-96 -112l128 -165h-106zM282 385l-36 -24q-61 -40 -84 -66q-41 -45 -41 -96q0 -55 39.5 -95.5t93.5 -40.5q52 0 106 35q27 18 90 71z" />
    <glyph glyph-name="quotesingle" unicode="'" horiz-adv-x="289" 
d="M98 754h94l-18 -328h-58z" />
    <glyph glyph-name="parenleft" unicode="(" horiz-adv-x="287" 
d="M184 788l71 -34q-80 -212 -80 -480t80 -480l-71 -34q-91 194 -91 514t91 514z" />
    <glyph glyph-name="parenright" unicode=")" horiz-adv-x="287" 
d="M32 754l71 34q91 -194 91 -514t-91 -514l-71 34q80 212 80 480t-80 480z" />
    <glyph glyph-name="asterisk" unicode="*" horiz-adv-x="592" 
d="M265 614l-6 140h75l-6 -140l132 49l24 -72l-136 -38l87 -110l-61 -45l-78 118l-78 -118l-61 45l88 110l-136 38l24 72z" />
    <glyph glyph-name="plus" unicode="+" 
d="M269 498h78v-203h203v-78h-203v-203h-78v203h-203v78h203v203z" />
    <glyph glyph-name="comma" unicode="," horiz-adv-x="308" 
d="M151 110l74 -26l-113 -256l-54 22z" />
    <glyph glyph-name="hyphen" unicode="-" horiz-adv-x="208" 
d="M2 278h205v-74h-205v74z" />
    <glyph glyph-name="hyphen" unicode="&#x2010;" horiz-adv-x="208" 
d="M2 278h205v-74h-205v74z" />
    <glyph glyph-name="period" unicode="." horiz-adv-x="308" 
d="M154 99q23 0 39.5 -16t16.5 -39t-16.5 -40t-39.5 -17t-39.5 17t-16.5 40t16.5 39t39.5 16z" />
    <glyph glyph-name="slash" unicode="/" horiz-adv-x="570" 
d="M486 825l66 -30l-469 -952l-65 30z" />
    <glyph glyph-name="zero" unicode="0" 
d="M308 767q131 0 207 -137q63 -113 63 -254q0 -151 -70 -264q-78 -125 -200 -125q-129 0 -206 136q-64 113 -64 253q0 141 63 254q76 137 207 137zM308 689q-95 0 -147 -118q-41 -93 -39 -199q2 -105 42 -193q52 -114 144 -114t144 114q40 88 42 193q2 106 -39 199
q-52 118 -147 118z" />
    <glyph glyph-name="one" unicode="1" 
d="M283 676h-125l44 78h165v-754h-84v676z" />
    <glyph glyph-name="two" unicode="2" 
d="M211 78h318v-78h-488l353 417q51 60 51 126q0 63 -43.5 104.5t-106.5 41.5q-67 0 -108.5 -43.5t-43.5 -111.5h-84q2 101 67.5 167t165.5 66q99 0 168 -62.5t69 -160.5q0 -92 -57 -159z" />
    <glyph glyph-name="three" unicode="3" 
d="M271 357v78q149 6 149 122q0 60 -36 96t-96 36q-113 0 -124 -121h-83q9 92 63.5 145.5t145.5 53.5q93 0 153.5 -56.5t60.5 -149.5q0 -52 -26 -97t-71 -68q52 -24 80 -74.5t28 -110.5q0 -99 -67.5 -161.5t-166.5 -62.5q-94 0 -157 57q-66 59 -67 152h82q3 -57 45 -94
t100 -37q63 0 105 43.5t42 107.5q0 71 -44 107t-116 34z" />
    <glyph glyph-name="four" unicode="4" 
d="M476 200h93v-78h-93v-122h-84v122h-386l468 674h2v-596zM392 200v341h-2l-237 -341h239z" />
    <glyph glyph-name="five" unicode="5" 
d="M523 676h-241l-49 -161l45 4q112 0 181.5 -75t69.5 -188q0 -117 -79.5 -193t-197.5 -76q-152 0 -231 135l67 48q59 -105 167 -105q84 0 137 54.5t53 138.5q0 80 -53.5 131.5t-134.5 51.5q-69 0 -143 -48l109 361h300v-78z" />
    <glyph glyph-name="six" unicode="6" 
d="M363 767l63 -47l-174 -234l2 -2q31 11 66 11q103 0 173.5 -72.5t70.5 -176.5q0 -109 -75.5 -184t-184.5 -75q-108 0 -184 75t-76 183q0 87 69 181zM304 65q74 0 125 51.5t51 126.5q0 74 -51 124t-125 50q-75 0 -125.5 -50t-50.5 -124q0 -75 51 -126.5t125 -51.5z" />
    <glyph glyph-name="seven" unicode="7" 
d="M463 676h-412v78h556l-506 -767l-66 39z" />
    <glyph glyph-name="eight" unicode="8" 
d="M308 355q-61 0 -103.5 -42t-42.5 -103t42.5 -103t103.5 -42t103.5 42t42.5 103t-42.5 103t-103.5 42zM308 767q91 0 151 -60t60 -150q0 -51 -24.5 -96t-67.5 -69q52 -24 81.5 -73t29.5 -108q0 -98 -65.5 -161t-164.5 -63t-164.5 63t-65.5 161q0 59 29.5 108t81.5 73
q-43 24 -67.5 69t-24.5 96q0 90 60 150t151 60zM308 689q-54 0 -92.5 -38t-38.5 -92q0 -55 38 -93.5t93 -38.5t93 38.5t38 93.5q0 54 -38.5 92t-92.5 38z" />
    <glyph glyph-name="nine" unicode="9" 
d="M245 -13l-63 43l174 239l-2 2q-33 -10 -65 -10q-104 0 -174 72.5t-70 176.5q0 109 75.5 183t184.5 74t184.5 -74t75.5 -183q0 -85 -70 -181zM305 689q-73 0 -124.5 -51.5t-51.5 -124.5q0 -74 50.5 -124t125.5 -50q74 0 125 50t51 124q0 73 -51.5 124.5t-124.5 51.5z" />
    <glyph glyph-name="colon" unicode=":" horiz-adv-x="308" 
d="M154 99q23 0 39.5 -16t16.5 -39t-16.5 -40t-39.5 -17t-39.5 17t-16.5 40t16.5 39t39.5 16zM154 483q23 0 39.5 -16t16.5 -39t-16.5 -40t-39.5 -17t-39.5 17t-16.5 40t16.5 39t39.5 16z" />
    <glyph glyph-name="semicolon" unicode=";" horiz-adv-x="308" 
d="M153 110l74 -26l-113 -256l-54 22zM179 483q23 0 39.5 -16t16.5 -39t-16.5 -40t-39.5 -17t-39.5 17t-16.5 40t16.5 39t39.5 16z" />
    <glyph glyph-name="less" unicode="&#x3c;" 
d="M550 498v-85l-368 -157l368 -157v-85l-484 207v70z" />
    <glyph glyph-name="equal" unicode="=" 
d="M66 373h484v-78h-484v78zM66 217h484v-78h-484v78z" />
    <glyph glyph-name="greater" unicode="&#x3e;" 
d="M66 413v85l484 -207v-70l-484 -207v85l368 157z" />
    <glyph glyph-name="question" unicode="?" horiz-adv-x="488" 
d="M325 328h81q2 -74 -44 -123.5t-119 -49.5q-70 0 -116.5 46.5t-46.5 116.5q0 109 137 153q70 22 87 34q40 27 40 81q0 46 -28.5 75t-74.5 29q-42 0 -70 -28.5t-28 -70.5q0 -24 6 -48h-83l-4 53q-6 76 53 125q54 46 131 46t128.5 -51.5t51.5 -128.5q0 -85 -54 -134
q-32 -29 -133 -58q-77 -22 -77 -83q0 -34 24 -57t58 -23q40 0 62 29q19 25 19 67zM242 99q23 0 39.5 -16t16.5 -39t-16.5 -40t-39.5 -17t-39.5 17t-16.5 40t16.5 39t39.5 16z" />
    <glyph glyph-name="at" unicode="@" horiz-adv-x="800" 
d="M261 346q0 -52 28.5 -86t79.5 -34q65 0 102 54q33 47 33 115q0 49 -27.5 80.5t-75.5 31.5q-59 0 -101 -52q-39 -48 -39 -109zM528 505l14 61h71l-50 -255q-8 -41 -8 -55q0 -30 22 -30q45 0 82 76q31 63 34 115q7 128 -70.5 203t-207.5 75q-136 0 -221.5 -90.5
t-85.5 -227.5q0 -141 91.5 -229.5t232.5 -88.5q127 0 191 46l70 -51q-130 -67 -269 -67q-167 0 -277.5 111.5t-110.5 278.5q0 166 108.5 278t273.5 112q137 0 235 -86q112 -99 112 -229q0 -108 -52 -196q-62 -104 -164 -100q-45 2 -54 61q-61 -61 -136 -61q-71 0 -120 57
q-48 54 -48 126q0 93 54 162q59 74 150 74q79 0 133 -70z" />
    <glyph glyph-name="A" unicode="A" horiz-adv-x="699" 
d="M511 214h-322l-91 -214h-92l348 790l339 -790h-93zM478 292l-126 302l-129 -302h255z" />
    <glyph glyph-name="B" unicode="B" horiz-adv-x="568" 
d="M160 350v-272h84q193 0 193 138q0 134 -204 134h-73zM76 0v754h124q252 0 252 -204q0 -98 -74 -147q66 -16 104.5 -70t38.5 -123q0 -110 -84 -164q-71 -46 -186 -46h-175zM160 676v-254h32q86 0 124 20q52 28 52 108q0 78 -49 106q-35 20 -126 20h-33z" />
    <glyph glyph-name="C" unicode="C" horiz-adv-x="717" 
d="M651 693v-104q-97 100 -230 100q-127 0 -215.5 -92t-88.5 -220t89 -220t217 -92t228 100v-104q-102 -74 -225 -74q-162 0 -277.5 112.5t-115.5 274.5q0 164 114.5 278.5t278.5 114.5q126 0 225 -74z" />
    <glyph glyph-name="D" unicode="D" horiz-adv-x="678" 
d="M76 0v754h142q94 0 156 -17q76 -21 138 -74q125 -107 125 -287q0 -172 -123 -281q-64 -57 -138 -78q-60 -17 -160 -17h-140zM160 78h61q146 0 236 75q96 81 96 224q0 144 -96 224q-89 75 -236 75h-61v-598z" />
    <glyph glyph-name="E" unicode="E" horiz-adv-x="534" 
d="M76 0v754h391v-78h-307v-224h298v-78h-298v-296h307v-78h-391z" />
    <glyph glyph-name="F" unicode="F" horiz-adv-x="478" 
d="M419 676h-259v-224h251v-78h-251v-374h-84v754h343v-78z" />
    <glyph glyph-name="G" unicode="G" horiz-adv-x="820" 
d="M463 379h314q2 -86 -12 -141q-18 -68 -66 -125q-51 -60 -125 -93t-154 -33q-161 0 -274.5 113.5t-113.5 274.5q0 165 114 278.5t279 113.5q194 0 319 -163l-61 -57q-101 142 -259 142q-130 0 -219 -92t-89 -223q0 -124 89.5 -216.5t212.5 -92.5q105 0 184 65
q85 68 85 171h-224v78z" />
    <glyph glyph-name="H" unicode="H" horiz-adv-x="714" 
d="M164 448h386v306h84v-754h-84v370h-386v-370h-84v754h84v-306z" />
    <glyph glyph-name="I" unicode="I" horiz-adv-x="239" 
d="M162 754v-754h-84v754h84z" />
    <glyph glyph-name="J" unicode="J" horiz-adv-x="314" 
d="M236 754v-597q0 -123 -38 -173q-47 -62 -130 -62q-67 0 -134 56l47 65q46 -43 89 -43q54 0 72 56q10 31 10 101v597h84z" />
    <glyph glyph-name="K" unicode="K" horiz-adv-x="611" 
d="M160 431l321 323h113l-354 -351l366 -403h-116l-309 346l-21 -21v-325h-84v754h84v-323z" />
    <glyph glyph-name="L" unicode="L" horiz-adv-x="375" 
d="M160 754v-676h208v-78h-292v754h84z" />
    <glyph glyph-name="M" unicode="M" horiz-adv-x="896" 
d="M21 0l153 797l274 -633l275 633l153 -797h-86l-97 510h-2l-243 -541l-242 541h-2l-97 -510h-86z" />
    <glyph glyph-name="N" unicode="N" horiz-adv-x="834" 
d="M81 0v786l588 -616v584h84v-788l-588 615v-581h-84z" />
    <glyph glyph-name="O" unicode="O" horiz-adv-x="862" 
d="M431 767q164 0 278.5 -113.5t114.5 -277.5t-114.5 -276.5t-278.5 -112.5t-278.5 112.5t-114.5 276.5t114.5 277.5t278.5 113.5zM431 689q-131 0 -220 -90.5t-89 -221.5q0 -130 89.5 -221t219.5 -91t219.5 91t89.5 221q0 131 -89 221.5t-220 90.5z" />
    <glyph glyph-name="P" unicode="P" horiz-adv-x="503" 
d="M160 330v-330h-84v754h124q129 0 187 -40q85 -59 85 -172q0 -108 -74 -163q-65 -49 -177 -49h-61zM160 676v-268h56q172 0 172 136q0 83 -62 112q-42 20 -135 20h-31z" />
    <glyph glyph-name="Q" unicode="Q" horiz-adv-x="862" 
d="M527 304l130 -136q83 87 83 209q0 131 -89 221.5t-220 90.5t-220 -90.5t-89 -221.5q0 -130 89.5 -221t219.5 -91q94 0 168 56l-182 183h110zM721 -7l-63 68q-98 -74 -227 -74q-164 0 -278.5 112.5t-114.5 276.5t114.5 277.5t278.5 113.5q165 0 279 -114t114 -279
q0 -149 -109 -266l113 -115h-107z" />
    <glyph glyph-name="R" unicode="R" horiz-adv-x="542" 
d="M160 676v-271h26q191 0 191 135q0 85 -58 115q-40 21 -134 21h-25zM160 331v-331h-84v754h109q276 0 276 -208q0 -88 -51 -144.5t-138 -63.5l240 -338h-103l-228 331h-21z" />
    <glyph glyph-name="S" unicode="S" horiz-adv-x="559" 
d="M485 650l-67 -43q-47 82 -130 82q-52 0 -88.5 -33t-36.5 -84q0 -43 40 -75q24 -19 78 -43l50 -22q89 -39 127 -77q54 -53 54 -135q0 -99 -68.5 -166t-168.5 -67q-90 0 -153.5 53t-81.5 142l82 23q8 -60 49.5 -100t101.5 -40q63 0 109 42t46 105q0 59 -43 96
q-29 25 -96 54l-46 20q-80 35 -115 70q-49 49 -49 123q0 86 64 140q60 52 147 52q132 0 195 -117z" />
    <glyph glyph-name="T" unicode="T" horiz-adv-x="470" 
d="M276 676v-676h-84v676h-182v78h450v-78h-184z" />
    <glyph glyph-name="U" unicode="U" horiz-adv-x="685" 
d="M158 754v-449q0 -65 3 -87q13 -95 98 -134q41 -19 84 -19q93 0 148 67q25 31 33 82q4 26 4 91v449h84v-472q0 -70 -11 -112q-15 -55 -55 -97q-82 -86 -203 -86q-115 0 -195 77q-45 44 -62 101q-12 41 -12 117v472h84z" />
    <glyph glyph-name="V" unicode="V" horiz-adv-x="624" 
d="M97 754l215 -575l215 575h91l-306 -799l-306 799h91z" />
    <glyph glyph-name="W" unicode="W" horiz-adv-x="1091" 
d="M104 754l198 -565l244 604l244 -604l198 565h91l-289 -793l-244 607l-244 -607l-289 793h91z" />
    <glyph glyph-name="X" unicode="X" horiz-adv-x="564" 
d="M236 390l-204 364h96l154 -284l154 284h96l-204 -364l223 -390h-96l-173 310l-173 -310h-96z" />
    <glyph glyph-name="Y" unicode="Y" horiz-adv-x="593" 
d="M255 324l-247 430h97l192 -336l192 336h97l-247 -430v-324h-84v324z" />
    <glyph glyph-name="Z" unicode="Z" horiz-adv-x="586" 
d="M153 78h401v-78h-540l411 676h-359v78h499z" />
    <glyph glyph-name="bracketleft" unicode="[" horiz-adv-x="315" 
d="M186 714v-880h108v-74h-190v1028h190v-74h-108z" />
    <glyph glyph-name="backslash" unicode="\" horiz-adv-x="570" 
d="M18 795l66 30l468 -825l-65 -30z" />
    <glyph glyph-name="bracketright" unicode="]" horiz-adv-x="315" 
d="M129 -166v880h-108v74h190v-1028h-190v74h108z" />
    <glyph glyph-name="asciicircum" unicode="^" 
d="M66 322l206 432h72l206 -432h-89l-153 328l-155 -328h-87z" />
    <glyph glyph-name="underscore" unicode="_" horiz-adv-x="500" 
d="M500 -113v-75h-500v75h500z" />
    <glyph glyph-name="grave" unicode="`" horiz-adv-x="358" 
d="M78 706l84 38l119 -164l-50 -28z" />
    <glyph glyph-name="a" unicode="a" horiz-adv-x="577" 
d="M271 409q-68 0 -110.5 -49.5t-42.5 -119.5q0 -73 40 -124q43 -55 114 -55q74 0 117 53q40 49 40 125q0 73 -43 121.5t-115 48.5zM505 470v-470h-80v65h-2q-61 -78 -162 -78q-100 0 -164 75q-61 70 -61 172q0 105 60 175q63 74 166 74q99 0 161 -80h2v67h80z" />
    <glyph glyph-name="b" unicode="b" horiz-adv-x="577" 
d="M301 409q-68 0 -110.5 -49.5t-42.5 -119.5q0 -73 40 -124q43 -55 114 -55q74 0 117 53q40 49 40 125q0 73 -43 121.5t-115 48.5zM72 0v825h80v-422h2q61 80 161 80q103 0 166 -74q60 -69 60 -174q0 -102 -61 -173q-63 -75 -164 -75q-104 0 -162 78h-2v-65h-80z" />
    <glyph glyph-name="c" unicode="c" horiz-adv-x="476" 
d="M425 436v-106h-2q-62 79 -146 79q-72 0 -119 -50.5t-47 -123.5t44 -122q46 -52 118 -52q91 0 153 81h2v-107q-71 -48 -149 -48q-108 0 -179 70t-71 178q0 106 72.5 177t178.5 71q79 0 145 -47z" />
    <glyph glyph-name="d" unicode="d" horiz-adv-x="577" 
d="M271 409q-68 0 -110.5 -49.5t-42.5 -119.5q0 -73 40 -124q43 -55 114 -55q74 0 117 53q40 49 40 125q0 73 -43 121.5t-115 48.5zM425 0v65h-2q-60 -78 -162 -78q-100 0 -164 75q-61 70 -61 172q0 105 60 175q63 74 166 74q100 0 161 -80h2v422h80v-825h-80z" />
    <glyph glyph-name="e" unicode="e" horiz-adv-x="519" 
d="M485 218h-369q1 -68 44 -112.5t110 -44.5q89 0 143 97l68 -39q-71 -132 -217 -132q-104 0 -167 69t-63 173q0 109 59 179q62 75 169 75q109 0 171 -80q58 -74 52 -185zM120 286h281q-8 52 -47 87.5t-91 35.5q-53 0 -94.5 -35.5t-48.5 -87.5z" />
    <glyph glyph-name="f" unicode="f" horiz-adv-x="274" 
d="M163 396v-396h-80v396h-44v74h44v187q0 88 21 122q36 59 121 59q25 0 57 -10v-81q-33 11 -54 11q-44 0 -57 -33q-8 -21 -8 -96v-159h119v-74h-119z" />
    <glyph glyph-name="g" unicode="g" horiz-adv-x="580" 
d="M266 409q-68 0 -110.5 -49.5t-42.5 -119.5q0 -73 40 -124q43 -55 114 -55q74 0 117 53q40 49 40 125q0 73 -43 121.5t-115 48.5zM500 470v-447q0 -73 -6 -106q-10 -55 -42 -96q-65 -83 -182 -83q-100 0 -164.5 58.5t-66.5 157.5h80q1 -65 42.5 -103.5t107.5 -38.5
q151 0 151 197v56h-2q-60 -78 -163 -78q-101 0 -164 74q-60 69 -60 172q0 104 61 175q64 75 166 75q100 0 160 -80h2v67h80z" />
    <glyph glyph-name="h" unicode="h" horiz-adv-x="528" 
d="M76 825h80l2 -412q51 70 134 70q160 0 160 -204v-279h-80v265q0 71 -15 101q-21 43 -84 43q-74 0 -100 -61q-17 -40 -17 -125v-223h-80v825z" />
    <glyph glyph-name="i" unicode="i" horiz-adv-x="262" 
d="M171 470v-470h-80v470h80zM131 704q23 0 40 -17t17 -40q0 -24 -16.5 -40.5t-40.5 -16.5t-40.5 16.5t-16.5 40.5q0 23 17 40t40 17z" />
    <glyph glyph-name="j" unicode="j" horiz-adv-x="262" 
d="M171 470v-734h-80v734h80zM131 704q23 0 40 -17t17 -40q0 -24 -16.5 -40.5t-40.5 -16.5t-40.5 16.5t-16.5 40.5q0 23 17 40t40 17z" />
    <glyph glyph-name="k" unicode="k" horiz-adv-x="470" 
d="M152 825v-529l171 174h107l-201 -200l239 -270h-106l-189 214l-21 -21v-193h-80v825h80z" />
    <glyph glyph-name="l" unicode="l" horiz-adv-x="227" 
d="M154 825v-825h-80v825h80z" />
    <glyph glyph-name="m" unicode="m" horiz-adv-x="768" 
d="M156 470v-51h2q41 64 113 64q90 0 130 -78q42 78 141 78q150 0 150 -197v-286h-80v273q0 62 -12 91q-19 45 -74 45q-102 0 -102 -160v-249h-80v267q0 142 -84 142q-104 0 -104 -166v-243h-80v470h80z" />
    <glyph glyph-name="n" unicode="n" horiz-adv-x="528" 
d="M156 470v-57h2q51 70 134 70q160 0 160 -204v-279h-80v265q0 71 -15 101q-21 43 -84 43q-74 0 -100 -61q-17 -40 -17 -125v-223h-80v470h80z" />
    <glyph glyph-name="o" unicode="o" horiz-adv-x="562" 
d="M281 -13q-105 0 -176 71t-71 176t71 177t176 72t176 -72t71 -177t-71 -176t-176 -71zM281 409q-74 0 -120.5 -50t-46.5 -124t46.5 -124t120.5 -50t120.5 50t46.5 124t-46.5 124t-120.5 50z" />
    <glyph glyph-name="p" unicode="p" horiz-adv-x="577" 
d="M301 409q-68 0 -110.5 -49.5t-42.5 -119.5q0 -73 40 -124q43 -55 114 -55q74 0 117 53q40 49 40 125q0 73 -43 121.5t-115 48.5zM152 470v-67h2q60 80 162 80q100 0 164 -76q61 -71 61 -173q0 -105 -60 -174q-63 -73 -166 -73q-102 0 -161 79h-2v-330h-80v734h80z" />
    <glyph glyph-name="q" unicode="q" horiz-adv-x="577" 
d="M271 409q-68 0 -110.5 -49.5t-42.5 -119.5q0 -73 40 -124q43 -55 114 -55q74 0 117 53q40 49 40 125q0 73 -43 121.5t-115 48.5zM505 470v-734h-80v330h-2q-59 -79 -161 -79q-104 0 -166 72q-60 69 -60 174q0 104 60 175q63 75 165 75t162 -80h2v67h80z" />
    <glyph glyph-name="r" unicode="r" horiz-adv-x="335" 
d="M152 470v-51h2q48 64 104 64q33 0 72 -22l-38 -73q-31 21 -48 21q-92 0 -92 -174v-235h-80v470h80z" />
    <glyph glyph-name="s" unicode="s" horiz-adv-x="399" 
d="M333 396l-67 -35q-21 48 -64 48q-22 0 -40 -15t-18 -37q0 -34 57 -60q91 -41 104 -50q57 -39 57 -107q0 -67 -46 -110t-113 -43q-59 0 -103 31.5t-63 87.5l71 30q34 -75 96 -75q33 0 54.5 20t21.5 52q0 43 -61 74q-32 15 -96 44q-55 36 -55 99q0 59 40.5 96t99.5 37
q40 0 74.5 -24.5t50.5 -62.5z" />
    <glyph glyph-name="t" unicode="t" horiz-adv-x="240" 
d="M160 396v-396h-80v396h-49v74h49v169h80v-169h84v-74h-84z" />
    <glyph glyph-name="u" unicode="u" horiz-adv-x="512" 
d="M150 470v-262q0 -71 17 -103q24 -44 89 -44t89 44q17 32 17 103v262h80v-271q0 -212 -186 -212t-186 212v271h80z" />
    <glyph glyph-name="v" unicode="v" horiz-adv-x="463" 
d="M92 470l140 -316l140 316h90l-230 -501l-231 501h91z" />
    <glyph glyph-name="w" unicode="w" horiz-adv-x="760" 
d="M94 470l139 -318l146 354l147 -354l140 318h91l-233 -503l-145 350l-145 -350l-231 503h91z" />
    <glyph glyph-name="x" unicode="x" horiz-adv-x="498" 
d="M201 250l-171 220h98l123 -160l123 160h100l-172 -220l195 -250h-97l-149 191l-150 -191h-100z" />
    <glyph glyph-name="y" unicode="y" horiz-adv-x="498" 
d="M214 44l-216 426h93l166 -337l152 337h91l-347 -734h-91z" />
    <glyph glyph-name="z" unicode="z" horiz-adv-x="519" 
d="M172 74h324v-74h-486l339 396h-276v74h437z" />
    <glyph glyph-name="braceleft" unicode="{" horiz-adv-x="334" 
d="M51 242v64q47 15 63 55q12 30 12 105v187q0 40 22 84q26 51 63 51h73v-74h-40q-24 0 -31 -21q-5 -15 -5 -55v-189q0 -75 -33 -128q-20 -32 -43 -47q23 -14 43 -47q33 -54 33 -129v-188q0 -40 5 -55q7 -21 31 -21h40v-74h-73q-37 0 -63 51q-22 44 -22 84v186q0 74 -12 106
q-15 40 -63 55z" />
    <glyph glyph-name="bar" unicode="|" horiz-adv-x="570" 
d="M324 825v-825h-78v825h78z" />
    <glyph glyph-name="braceright" unicode="}" horiz-adv-x="334" 
d="M283 306v-64q-48 -15 -63 -55q-12 -32 -12 -106v-186q0 -40 -22 -84q-26 -51 -63 -51h-73v74h40q25 0 32 21q4 12 4 55v188q0 75 33 129q20 33 43 47q-23 15 -43 47q-33 53 -33 128v189q0 43 -4 55q-7 21 -32 21h-40v74h73q37 0 63 -51q22 -44 22 -84v-187q0 -75 12 -105
q16 -40 63 -55z" />
    <glyph glyph-name="asciitilde" unicode="~" 
d="M135 172v0l-69 28q53 147 139 147q41 0 109 -45q16 -11 47 -32.5t50 -21.5q42 0 71 97l68 -28q-50 -147 -139 -147q-36 0 -102 44q-82 54 -104 54q-40 0 -70 -96z" />
    <glyph glyph-name="dagger" unicode="&#x2020;" horiz-adv-x="592" 
d="M255 754h82v-185h167v-78h-167v-654h-82v654h-167v78h167v185z" />
    <glyph glyph-name="cent" unicode="&#xa2;" 
d="M491 587v-106h-2q-52 66 -118 76v-344q70 10 120 80h2v-107q-65 -43 -122 -47v-112h-66v113q-90 10 -150 79.5t-60 160.5q0 95 58.5 166.5t151.5 82.5v106h66v-104q65 -6 120 -44zM305 214v341q-57 -11 -92.5 -60t-35.5 -109q0 -61 34 -109q36 -51 94 -63z" />
    <glyph glyph-name="sterling" unicode="&#xa3;" 
d="M208 268h-127v64h100l-19 37q-40 78 -44 88q-20 50 -20 96q0 92 65 153t158 61q98 0 158 -64t61 -162l-82 -22q-1 72 -31 116q-35 52 -104 52q-58 0 -98.5 -39t-40.5 -97q0 -51 33 -113l56 -106h142v-64h-120q7 -26 7 -45q0 -51 -33 -108l5 -2q107 -43 145 -43
q48 0 91 75l68 -41q-52 -116 -154 -116q-39 0 -118 29t-114 29q-54 0 -90 -61l-65 44q59 96 146 97q32 45 32 93q0 27 -7 49z" />
    <glyph glyph-name="section" unicode="&#xa7;" horiz-adv-x="592" 
d="M296 402q-46 0 -78 -32t-32 -78t32 -78.5t78 -32.5t78.5 32.5t32.5 78.5t-32.5 78t-78.5 32zM105 4h81q0 -116 102 -116q103 0 103 100q0 49 -36 77q-19 15 -80 39q-36 14 -58 24q-34 15 -54 31q-61 48 -61 132q0 120 105 163q-88 44 -88 141q0 77 57 125q54 47 132 47
q41 0 81 -18t62 -49q34 -49 36 -129h-80q-6 119 -100 119q-46 0 -76 -27.5t-30 -73.5q0 -51 45 -80q19 -12 100 -41q68 -24 99 -55q45 -45 45 -124q0 -106 -105 -160q88 -45 88 -146q0 -80 -52.5 -126t-133.5 -46q-174 0 -182 193z" />
    <glyph glyph-name="bullet" unicode="&#x2022;" horiz-adv-x="592" 
d="M296 189q-79 0 -133.5 54.5t-54.5 133.5q0 80 54 134.5t134 54.5t134.5 -54.5t54.5 -134.5q0 -79 -54.5 -133.5t-134.5 -54.5z" />
    <glyph glyph-name="paragraph" unicode="&#xb6;" horiz-adv-x="592" 
d="M534 754v-65h-58v-842h-65v842h-81v-842h-65v436q-93 0 -148 62q-51 57 -58 152q-7 97 55 175q64 82 160 82h260z" />
    <glyph glyph-name="germandbls" unicode="&#xdf;" horiz-adv-x="577" 
d="M72 0v396h-44v74h44v144q0 104 39 154q55 70 159 70q84 0 139 -52.5t55 -135.5q0 -46 -22 -86t-62 -60q73 -25 118 -95q43 -66 43 -146q0 -117 -84.5 -195.5t-202.5 -80.5v74q87 5 146 62t59 143q0 88 -60 139q-54 46 -145 53v74q57 -1 93.5 32t36.5 90q0 49 -33 79.5
t-82 30.5q-80 0 -104 -60q-13 -33 -13 -127v-577h-80z" />
    <glyph glyph-name="acute" unicode="&#xb4;" horiz-adv-x="358" 
d="M197 744l84 -38l-153 -154l-50 28z" />
    <glyph glyph-name="dieresis" unicode="&#xa8;" horiz-adv-x="467" 
d="M135 705q23 0 38.5 -15.5t15.5 -38.5t-15.5 -38.5t-38.5 -15.5q-22 0 -38 16t-16 38q0 23 15.5 38.5t38.5 15.5zM332 705q23 0 38.5 -15.5t15.5 -38.5t-15.5 -38.5t-38.5 -15.5q-22 0 -38 16t-16 38q0 23 15.5 38.5t38.5 15.5z" />
    <glyph glyph-name="AE" unicode="&#xc6;" horiz-adv-x="1000" 
d="M510 212h-322l-89 -212h-93l336 754h331l34 -78h-305l94 -225h297l35 -78h-298l123 -295h306l33 -78h-393zM476 290l-124 297l-128 -297h252z" />
    <glyph glyph-name="Oslash" unicode="&#xd8;" horiz-adv-x="862" 
d="M767 774l56 -57l-89 -91q90 -110 90 -248q0 -163 -114 -277t-277 -114q-140 0 -252 90l-92 -91l-56 57l91 91q-86 106 -86 242q0 163 115.5 277t279.5 114q133 0 243 -84zM186 191l431 436q-82 62 -185 62q-131 0 -220.5 -90.5t-89.5 -221.5q0 -103 64 -186zM674 570
l-432 -436q87 -69 190 -69q129 0 218.5 91t89.5 221q0 109 -66 193z" />
    <glyph glyph-name="yen" unicode="&#xa5;" 
d="M266 0v256h-237v64h237l-55 100h-182v64h145l-155 270h97l192 -334l192 334h97l-155 -270h145v-64h-182l-55 -100h237v-64h-237v-256h-84z" />
    <glyph glyph-name="ordfeminine" unicode="&#xaa;" horiz-adv-x="346" 
d="M174 723q-43 0 -72 -29.5t-29 -72.5q0 -46 28 -77t73 -31q47 0 74.5 30t27.5 77q0 46 -28 74.5t-74 28.5zM326 759v-282h-52v39h-2q-39 -47 -105 -47q-63 0 -104.5 42.5t-41.5 105.5q0 65 41 107.5t106 42.5q64 0 104 -48h2v40h52zM326 360h-305v52h305v-52z" />
    <glyph glyph-name="ordmasculine" unicode="&#xba;" horiz-adv-x="337" 
d="M169 469q-65 0 -113 42t-48 106q0 65 48 107.5t113 42.5t113 -42.5t48 -107.5q0 -64 -48 -106t-113 -42zM169 723q-46 0 -77.5 -29.5t-31.5 -75.5t31.5 -75.5t77.5 -29.5t77.5 29.5t31.5 75.5t-31.5 75.5t-77.5 29.5zM322 360h-305v52h305v-52z" />
    <glyph glyph-name="ae" unicode="&#xe6;" horiz-adv-x="843" 
d="M447 286h281q-8 52 -47 87.5t-91 35.5q-53 0 -94.5 -35.5t-48.5 -87.5zM228 223q-44 0 -78 -19q-41 -23 -41 -64t41 -62q32 -17 77 -17q49 0 83 17q44 22 44 66q0 41 -45 62q-35 17 -81 17zM809 218h-370q1 -68 44 -112.5t110 -44.5q89 0 143 97l68 -39
q-71 -132 -217 -132q-117 0 -180 93q-53 -93 -176 -93q-80 0 -136 35q-66 41 -66 116q0 77 62 119q54 37 134 37q75 0 134 -40q-2 155 -135 155q-56 0 -144 -30v76q93 28 149 28q57 0 102 -23q51 -26 72 -74q27 45 77 71t105 26q109 0 171 -80q58 -74 53 -185z" />
    <glyph glyph-name="oslash" unicode="&#xf8;" horiz-adv-x="562" 
d="M429 434l69 69l51 -50l-69 -69q48 -64 48 -150q0 -106 -70.5 -176.5t-176.5 -70.5q-85 0 -149 49l-71 -70l-51 51l70 70q-46 65 -46 147q0 105 71 177t176 72q78 0 148 -49zM138 141l235 241q-42 27 -92 27q-75 0 -121 -50.5t-46 -125.5q0 -47 24 -92zM423 331l-236 -244
q39 -26 94 -26q75 0 121 48t46 124q0 55 -25 98z" />
    <glyph glyph-name="questiondown" unicode="&#xbf;" horiz-adv-x="488" 
d="M163 146h-81q-2 74 44 123.5t119 49.5q70 0 116.5 -46.5t46.5 -116.5q0 -109 -137 -153q-70 -22 -87 -34q-40 -27 -40 -81q0 -46 28.5 -75t74.5 -29q42 0 70 28.5t28 70.5q0 24 -6 48h83l4 -53q6 -76 -53 -125q-54 -46 -131 -46t-128.5 51.5t-51.5 128.5q0 85 54 134
q32 29 133 58q77 22 77 83q0 34 -24 57t-58 23q-40 0 -60.5 -27.5t-20.5 -68.5zM246 483q23 0 39.5 -16.5t16.5 -39.5t-16.5 -39.5t-39.5 -16.5t-39.5 16.5t-16.5 39.5t16.5 39.5t39.5 16.5z" />
    <glyph glyph-name="exclamdown" unicode="&#xa1;" horiz-adv-x="338" 
d="M169 483q23 0 39.5 -16t16.5 -39t-16.5 -40t-39.5 -17t-39.5 17t-16.5 40t16.5 39t39.5 16zM210 317v-601h-82v601h82z" />
    <glyph glyph-name="florin" unicode="&#x192;" 
d="M538 825l-15 -75q-25 11 -50 11q-48 0 -68 -40q-11 -21 -22 -83l-25 -136h120l-11 -68h-121l-58 -314q-13 -68 -19 -93q-30 -114 -112 -150q-49 -21 -102 -17l-50 4l16 75l34 -1q79 -2 113 55q20 33 38 131l57 310h-82l11 68h84l28 158q15 86 46 126q41 52 120 52
q36 0 68 -13z" />
    <glyph glyph-name="guillemotleft" unicode="&#xab;" horiz-adv-x="500" 
d="M297 240l135 -166l-53 -41l-168 207l168 213l53 -42zM127 240l135 -166l-53 -41l-168 207l168 213l53 -42z" />
    <glyph glyph-name="guillemotright" unicode="&#xbb;" horiz-adv-x="500" 
d="M68 74l135 166l-135 171l53 42l168 -213l-168 -207zM238 74l135 166l-135 171l53 42l168 -213l-168 -207z" />
    <glyph glyph-name="ellipsis" unicode="&#x2026;" horiz-adv-x="1000" 
d="M168 99q23 0 39.5 -16t16.5 -39t-16.5 -40t-39.5 -17t-39.5 17t-16.5 40t16.5 39t39.5 16zM500 99q23 0 39.5 -16t16.5 -39t-16.5 -40t-39.5 -17t-39.5 17t-16.5 40t16.5 39t39.5 16zM832 99q23 0 39.5 -16t16.5 -39t-16.5 -40t-39.5 -17t-39.5 17t-16.5 40t16.5 39
t39.5 16z" />
    <glyph glyph-name="OE" unicode="&#x152;" horiz-adv-x="1190" 
d="M729 0v145h-2q-48 -75 -127 -116.5t-169 -41.5q-164 0 -278.5 112.5t-114.5 276.5t114.5 277.5t278.5 113.5q90 0 168 -42.5t128 -118.5h2v148h394v-78h-310v-224h301v-78h-301v-296h310v-78h-394zM431 689q-131 0 -220 -90.5t-89 -221.5q0 -130 89.5 -221t219.5 -91
t219.5 91t89.5 221q0 131 -89 221.5t-220 90.5z" />
    <glyph glyph-name="oe" unicode="&#x153;" horiz-adv-x="940" 
d="M906 218h-371q1 -68 44 -112.5t110 -44.5q89 0 143 97l68 -39q-71 -132 -217 -132q-59 0 -113.5 30.5t-80.5 81.5q-30 -53 -87.5 -82.5t-120.5 -29.5q-105 0 -176 71t-71 176t71.5 177.5t175.5 71.5q64 -1 121.5 -31t86.5 -83q27 53 79 83t113 31q110 1 172 -79
q59 -75 53 -186zM542 286h281q-8 52 -47 87.5t-91 35.5q-53 0 -94.5 -35.5t-48.5 -87.5zM283 409q-74 0 -120.5 -50t-46.5 -124t46.5 -124t120.5 -50t120.5 50t46.5 124t-46.5 124t-120.5 50z" />
    <glyph glyph-name="endash" unicode="&#x2013;" horiz-adv-x="500" 
d="M0 278h500v-74h-500v74z" />
    <glyph glyph-name="emdash" unicode="&#x2014;" horiz-adv-x="1000" 
d="M0 278h1000v-74h-1000v74z" />
    <glyph glyph-name="quotedblleft" unicode="&#x201c;" horiz-adv-x="457" 
d="M303 485l-74 27l114 255l54 -21zM135 485l-74 27l114 255l54 -21z" />
    <glyph glyph-name="quotedblright" unicode="&#x201d;" horiz-adv-x="457" 
d="M155 767l74 -27l-114 -255l-54 21zM323 767l74 -27l-114 -255l-54 21z" />
    <glyph glyph-name="quoteleft" unicode="&#x2018;" horiz-adv-x="289" 
d="M135 485l-74 27l114 255l54 -21z" />
    <glyph glyph-name="quoteright" unicode="&#x2019;" horiz-adv-x="289" 
d="M154 767l74 -27l-114 -255l-54 21z" />
    <glyph glyph-name="fraction" unicode="&#x2044;" horiz-adv-x="161" 
d="M278 767l44 -24l-439 -756l-44 24z" />
    <glyph glyph-name="currency" unicode="&#xa4;" 
d="M66 498l36 36l42 -42q80 58 164 58t164 -58l42 42l36 -36l-40 -40q53 -82 53 -158t-53 -158l40 -40l-36 -36l-42 42q-80 -58 -164 -58t-164 58l-42 -42l-36 36l40 40q-53 82 -53 158t53 158zM308 486q-83 0 -138 -52t-53 -134q1 -79 56.5 -132.5t134.5 -53.5t134.5 53.5
t56.5 132.5q2 82 -53 134t-138 52z" />
    <glyph glyph-name="guilsinglleft" unicode="&#x2039;" horiz-adv-x="330" 
d="M127 240l135 -166l-53 -41l-168 207l168 213l53 -42z" />
    <glyph glyph-name="guilsinglright" unicode="&#x203a;" horiz-adv-x="330" 
d="M68 74l135 166l-135 171l53 42l168 -213l-168 -207z" />
    <glyph glyph-name="fi" unicode="&#xf001;" horiz-adv-x="519" 
d="M151 396v-396h-80v396h-44v74h44v187q0 88 21 122q36 59 121 59q25 0 57 -10v-81q-33 11 -54 11q-44 0 -57 -33q-8 -21 -8 -96v-159h119v-74h-119zM428 470v-470h-80v470h80zM388 704q23 0 40 -17t17 -40q0 -24 -16.5 -40.5t-40.5 -16.5t-40.5 16.5t-16.5 40.5
q0 23 17 40t40 17z" />
    <glyph glyph-name="fl" unicode="&#xf002;" horiz-adv-x="501" 
d="M428 825v-825h-80v825h80zM151 396v-396h-80v396h-44v74h44v187q0 88 21 122q36 59 121 59q25 0 57 -10v-81q-33 11 -54 11q-44 0 -57 -33q-8 -21 -8 -96v-159h119v-74h-119z" />
    <glyph glyph-name="daggerdbl" unicode="&#x2021;" horiz-adv-x="592" 
d="M255 754h82v-185h167v-78h-167v-363h167v-78h-167v-213h-82v213h-167v78h167v363h-167v78h167v185z" />
    <glyph glyph-name="periodcentered" horiz-adv-x="308" 
d="M154 311q23 0 39.5 -16t16.5 -39t-16.5 -40t-39.5 -17t-39.5 17t-16.5 40t16.5 39t39.5 16z" />
    <glyph glyph-name="quotesinglbase" unicode="&#x201a;" horiz-adv-x="289" 
d="M155 110l74 -26l-114 -256l-54 22z" />
    <glyph glyph-name="quotedblbase" unicode="&#x201e;" horiz-adv-x="464" 
d="M155 110l74 -26l-114 -256l-54 22zM330 110l74 -26l-114 -256l-54 22z" />
    <glyph glyph-name="perthousand" unicode="&#x2030;" horiz-adv-x="1212" 
d="M202 767q70 0 119 -47.5t49 -117.5q0 -69 -49 -116.5t-119 -47.5t-119 47t-49 117t49 117.5t119 47.5zM202 703q-42 0 -73 -29.5t-31 -71.5t31 -71t73 -29t73 29t31 71t-31 71.5t-73 29.5zM599 767l40 -24l-436 -756l-43 26zM600 316q70 0 119 -47.5t49 -117.5
q0 -69 -49 -116.5t-119 -47.5t-119 47t-49 117t49 117.5t119 47.5zM600 252q-42 0 -73 -29.5t-31 -71.5t31 -71t73 -29t73 29t31 71t-31 71.5t-73 29.5zM1010 316q70 0 119 -47.5t49 -117.5q0 -69 -49 -116.5t-119 -47.5t-119 47t-49 117t49 117.5t119 47.5zM1010 252
q-42 0 -73 -29.5t-31 -71.5t31 -71t73 -29t73 29t31 71t-31 71.5t-73 29.5z" />
    <glyph glyph-name="dotlessi" unicode="&#x131;" horiz-adv-x="262" 
d="M171 470v-470h-80v470h80z" />
    <glyph glyph-name="circumflex" unicode="&#x2c6;" horiz-adv-x="470" 
d="M78 604l156 133l158 -133l-58 -45l-100 85l-99 -85z" />
    <glyph glyph-name="tilde" unicode="&#x2dc;" horiz-adv-x="506" 
d="M127 588v0l-49 39q45 79 102 79q27 0 78.5 -23t66.5 -23q30 0 56 48l47 -38q-33 -81 -106 -81q-24 0 -73 22.5t-72 22.5q-29 0 -50 -46z" />
    <glyph glyph-name="macron" unicode="&#xaf;" horiz-adv-x="499" 
d="M79 682h342v-68h-342v68z" />
    <glyph glyph-name="macron" unicode="&#x2c9;" horiz-adv-x="499" 
d="M79 682h342v-68h-342v68z" />
    <glyph glyph-name="breve" unicode="&#x2d8;" horiz-adv-x="485" 
d="M79 716h69q26 -68 95 -68t95 68h69q-8 -62 -54 -99t-110 -37q-62 0 -109 37.5t-55 98.5z" />
    <glyph glyph-name="dotaccent" unicode="&#x2d9;" horiz-adv-x="358" 
d="M179 716q23 0 38.5 -15.5t15.5 -38.5t-15.5 -38.5t-38.5 -15.5q-22 0 -38 16t-16 38q0 23 15.5 38.5t38.5 15.5z" />
    <glyph glyph-name="ring" unicode="&#x2da;" horiz-adv-x="350" 
d="M176 772q40 0 68.5 -28.5t28.5 -68.5q0 -41 -28 -69.5t-69 -28.5q-40 0 -69 29t-29 69t29 68.5t69 28.5zM176 722q-20 0 -34 -13.5t-14 -33.5q0 -19 14.5 -33.5t33.5 -14.5q20 0 33.5 14t13.5 34t-13.5 33.5t-33.5 13.5z" />
    <glyph glyph-name="cedilla" unicode="&#xb8;" horiz-adv-x="325" 
d="M248 -53l-114 -146l-56 28l96 148z" />
    <glyph glyph-name="hungarumlaut" unicode="&#x2dd;" horiz-adv-x="467" 
d="M223 742l-95 -159l-40 11l59 162zM380 742l-95 -159l-40 11l59 162z" />
    <glyph glyph-name="ogonek" unicode="&#x2db;" horiz-adv-x="337" 
d="M161 0h64v-2q-80 -54 -80 -100q0 -45 55 -45q31 0 60 18l-10 -66q-30 -15 -63 -15q-44 0 -75 24q-34 26 -34 69q0 66 83 117z" />
    <glyph glyph-name="caron" unicode="&#x2c7;" horiz-adv-x="470" 
d="M392 692l-156 -133l-158 133l58 45l100 -85l99 85z" />
    <glyph glyph-name="Lslash" unicode="&#x141;" horiz-adv-x="375" 
d="M160 453l130 90v-87l-130 -90v-288h208v-78h-292v321l-76 -53v87l76 54v345h84v-301z" />
    <glyph glyph-name="lslash" unicode="&#x142;" horiz-adv-x="258" 
d="M167 464l74 54v-88l-74 -54v-376h-80v332l-73 -54v88l73 54v405h80v-361z" />
    <glyph glyph-name="Eth" unicode="&#xd0;" horiz-adv-x="678" 
d="M76 0v370h-76v78h76v306h142q94 0 156 -17q76 -21 138 -74q125 -107 125 -287q0 -172 -123 -281q-64 -57 -138 -78q-60 -17 -160 -17h-140zM160 78h61q146 0 236 75q96 81 96 224q0 144 -96 224q-89 75 -236 75h-61v-228h134v-78h-134v-292z" />
    <glyph glyph-name="eth" unicode="&#xf0;" horiz-adv-x="561" 
d="M286 409q-74 0 -120.5 -50t-46.5 -124t46.5 -124t120.5 -50t120.5 50t46.5 124t-46.5 124t-120.5 50zM35 788l50 37l127 -103l125 103l43 -40l-124 -103q96 -75 173 -186q94 -135 98 -252q4 -105 -66 -181t-175 -76t-176 71t-71 176t71 177t176 72q30 0 68 -19l2 2
q-43 86 -150 174l-120 -100l-43 41l119 99q-56 53 -127 108z" />
    <glyph glyph-name="Scaron" unicode="&#x160;" horiz-adv-x="559" 
d="M485 650l-67 -43q-47 82 -130 82q-52 0 -88.5 -33t-36.5 -84q0 -43 40 -75q24 -19 78 -43l50 -22q89 -39 127 -77q54 -53 54 -135q0 -99 -68.5 -166t-168.5 -67q-90 0 -153.5 53t-81.5 142l82 23q8 -60 49.5 -100t101.5 -40q63 0 109 42t46 105q0 59 -43 96
q-29 25 -96 54l-46 20q-80 35 -115 70q-49 49 -49 123q0 86 64 140q60 52 147 52q132 0 195 -117zM437 976l-156 -133l-158 133l58 45l100 -85l99 85z" />
    <glyph glyph-name="scaron" unicode="&#x161;" horiz-adv-x="399" 
d="M333 396l-67 -35q-21 48 -64 48q-22 0 -40 -15t-18 -37q0 -34 57 -60q91 -41 104 -50q57 -39 57 -107q0 -67 -46 -110t-113 -43q-59 0 -103 31.5t-63 87.5l71 30q34 -75 96 -75q33 0 54.5 20t21.5 52q0 43 -61 74q-32 15 -96 44q-55 36 -55 99q0 59 40.5 96t99.5 37
q40 0 74.5 -24.5t50.5 -62.5zM357 692l-156 -133l-158 133l58 45l100 -85l99 85z" />
    <glyph glyph-name="Yacute" unicode="&#xdd;" horiz-adv-x="593" 
d="M255 324l-247 430h97l192 -336l192 336h97l-247 -430v-324h-84v324zM411 965l52 -53l-166 -109l-15 39z" />
    <glyph glyph-name="yacute" unicode="&#xfd;" horiz-adv-x="498" 
d="M214 44l-216 426h93l166 -337l152 337h91l-347 -734h-91zM366 673l49 -51l-158 -103l-14 37z" />
    <glyph glyph-name="HT" horiz-adv-x="308" 
 />
    <glyph glyph-name="Thorn" unicode="&#xde;" horiz-adv-x="503" 
d="M160 190v-190h-84v754h84v-140h40q129 0 187 -40q85 -59 85 -172q0 -108 -74 -163q-65 -49 -177 -49h-61zM160 536v-268h56q172 0 172 136q0 83 -62 112q-42 20 -135 20h-31z" />
    <glyph glyph-name="thorn" unicode="&#xfe;" horiz-adv-x="577" 
d="M152 825v-422h2q60 80 162 80q100 0 164 -76q61 -71 61 -173q0 -105 -60 -174q-63 -73 -166 -73q-102 0 -161 79h-2v-330h-80v1089h80zM301 409q-68 0 -110.5 -49.5t-42.5 -119.5q0 -73 40 -124q43 -55 114 -55q74 0 117 53q40 49 40 125q0 73 -43 121.5t-115 48.5z" />
    <glyph glyph-name="nonmarkingreturn" horiz-adv-x="308" 
 />
    <glyph glyph-name="Zcaron" unicode="&#x17d;" horiz-adv-x="586" 
d="M153 78h401v-78h-540l411 676h-359v78h499zM450 976l-156 -133l-158 133l58 45l100 -85l99 85z" />
    <glyph glyph-name="zcaron" unicode="&#x17e;" horiz-adv-x="519" 
d="M172 74h324v-74h-486l339 396h-276v74h437zM417 692l-156 -133l-158 133l58 45l100 -85l99 85z" />
    <glyph glyph-name="onehalf" unicode="&#xbd;" horiz-adv-x="924" 
d="M181 707h-81l29 52h112v-452h-60v400zM627 52h197v-52h-317l229 250q28 31 28 76q0 38 -26.5 60t-65.5 22q-42 0 -67.5 -23t-25.5 -65h-60q2 63 45 101.5t106 38.5q64 0 107 -35q47 -37 47 -99q0 -60 -32 -95zM603 767l44 -24l-439 -756l-44 24z" />
    <glyph glyph-name="onequarter" unicode="&#xbc;" horiz-adv-x="924" 
d="M181 707h-81l29 52h112v-452h-60v400zM764 125h60v-52h-60v-73h-60v73h-245l304 405h1v-353zM704 125v190h-2l-142 -190h144zM648 767l44 -24l-439 -756l-44 24z" />
    <glyph glyph-name="onesuperior" unicode="&#xb9;" horiz-adv-x="369" 
d="M195 707h-81l29 52h112v-452h-60v400z" />
    <glyph glyph-name="threequarters" unicode="&#xbe;" horiz-adv-x="924" 
d="M784 125h60v-52h-60v-73h-60v73h-245l304 405h1v-353zM724 125v190h-2l-142 -190h144zM706 767l44 -24l-439 -756l-44 24zM219 519v52q37 0 62 16q29 19 29 54q0 33 -23.5 53.5t-56.5 20.5q-67 0 -75 -67h-60q13 119 136 119q59 0 97 -32q42 -35 42 -92q0 -69 -63 -99
q70 -28 70 -111q0 -65 -45 -101q-41 -33 -107 -33q-59 0 -100 33q-44 35 -45 92h60q0 -35 27 -55q24 -18 60 -18q39 0 64.5 23.5t25.5 61.5q0 41 -28 63t-70 20z" />
    <glyph glyph-name="threesuperior" unicode="&#xb3;" horiz-adv-x="369" 
d="M175 519v52q37 0 62 16q29 19 29 54q0 33 -23.5 53.5t-56.5 20.5q-67 0 -75 -67h-60q13 119 136 119q59 0 97 -32q42 -35 42 -92q0 -69 -63 -99q70 -28 70 -111q0 -65 -45 -101q-41 -33 -107 -33q-59 0 -100 33q-44 35 -45 92h60q0 -35 27 -55q24 -18 60 -18
q39 0 64.5 23.5t25.5 61.5q0 41 -28 63t-70 20z" />
    <glyph glyph-name="twosuperior" unicode="&#xb2;" horiz-adv-x="369" 
d="M146 359h197v-52h-317l229 250q28 31 28 76q0 38 -26.5 60t-65.5 22q-42 0 -67.5 -23t-25.5 -65h-60q2 63 45 101.5t106 38.5q64 0 107 -35q47 -37 47 -99q0 -60 -32 -95z" />
    <glyph glyph-name="brokenbar" unicode="&#xa6;" horiz-adv-x="570" 
d="M324 330v-330h-78v330h78zM324 825v-330h-78v330h78z" />
    <glyph glyph-name="minus" unicode="&#x2212;" 
d="M66 217v78h484v-78h-484z" />
    <glyph glyph-name="multiply" unicode="&#xd7;" 
d="M66 443l55 55l187 -187l186 187l56 -55l-187 -187l187 -187l-56 -55l-186 187l-187 -187l-55 55l187 187z" />
    <glyph glyph-name="Adieresis" unicode="&#xc4;" horiz-adv-x="699" 
d="M511 214h-322l-91 -214h-92l348 790l339 -790h-93zM478 292l-126 302l-129 -302h255zM251 989q23 0 38.5 -15.5t15.5 -38.5t-15.5 -38.5t-38.5 -15.5q-22 0 -38 16t-16 38q0 23 15.5 38.5t38.5 15.5zM448 989q23 0 38.5 -15.5t15.5 -38.5t-15.5 -38.5t-38.5 -15.5
q-22 0 -38 16t-16 38q0 23 15.5 38.5t38.5 15.5z" />
    <glyph glyph-name="Aring" unicode="&#xc5;" horiz-adv-x="699" 
d="M511 214h-322l-91 -214h-92l348 790l339 -790h-93zM478 292l-126 302l-129 -302h255zM351 1056q40 0 68.5 -28.5t28.5 -68.5q0 -41 -28 -69.5t-69 -28.5q-40 0 -69 29t-29 69t29 68.5t69 28.5zM351 1006q-20 0 -34 -13.5t-14 -33.5q0 -19 14.5 -33.5t33.5 -14.5
q20 0 33.5 14t13.5 34t-13.5 33.5t-33.5 13.5z" />
    <glyph glyph-name="Ccedilla" unicode="&#xc7;" horiz-adv-x="717" 
d="M651 693v-104q-97 100 -230 100q-127 0 -215.5 -92t-88.5 -220t89 -220t217 -92t228 100v-104q-102 -74 -225 -74q-162 0 -277.5 112.5t-115.5 274.5q0 164 114.5 278.5t278.5 114.5q126 0 225 -74zM444 -53l-114 -146l-56 28l96 148z" />
    <glyph glyph-name="Eacute" unicode="&#xc9;" horiz-adv-x="534" 
d="M76 0v754h391v-78h-307v-224h298v-78h-298v-296h307v-78h-391zM384 1000l52 -53l-166 -109l-15 39z" />
    <glyph glyph-name="Ntilde" unicode="&#xd1;" horiz-adv-x="834" 
d="M81 0v786l588 -616v584h84v-788l-588 615v-581h-84zM291 872v0l-49 39q45 79 102 79q27 0 78.5 -23t66.5 -23q30 0 56 48l47 -38q-33 -81 -106 -81q-24 0 -73 22.5t-72 22.5q-29 0 -50 -46z" />
    <glyph glyph-name="Odieresis" unicode="&#xd6;" horiz-adv-x="862" 
d="M431 767q164 0 278.5 -113.5t114.5 -277.5t-114.5 -276.5t-278.5 -112.5t-278.5 112.5t-114.5 276.5t114.5 277.5t278.5 113.5zM431 689q-131 0 -220 -90.5t-89 -221.5q0 -130 89.5 -221t219.5 -91t219.5 91t89.5 221q0 131 -89 221.5t-220 90.5zM333 989
q23 0 38.5 -15.5t15.5 -38.5t-15.5 -38.5t-38.5 -15.5q-22 0 -38 16t-16 38q0 23 15.5 38.5t38.5 15.5zM530 989q23 0 38.5 -15.5t15.5 -38.5t-15.5 -38.5t-38.5 -15.5q-22 0 -38 16t-16 38q0 23 15.5 38.5t38.5 15.5z" />
    <glyph glyph-name="Udieresis" unicode="&#xdc;" horiz-adv-x="685" 
d="M158 754v-449q0 -65 3 -87q13 -95 98 -134q41 -19 84 -19q93 0 148 67q25 31 33 82q4 26 4 91v449h84v-472q0 -70 -11 -112q-15 -55 -55 -97q-82 -86 -203 -86q-115 0 -195 77q-45 44 -62 101q-12 41 -12 117v472h84zM244 989q23 0 38.5 -15.5t15.5 -38.5t-15.5 -38.5
t-38.5 -15.5q-22 0 -38 16t-16 38q0 23 15.5 38.5t38.5 15.5zM441 989q23 0 38.5 -15.5t15.5 -38.5t-15.5 -38.5t-38.5 -15.5q-22 0 -38 16t-16 38q0 23 15.5 38.5t38.5 15.5z" />
    <glyph glyph-name="aacute" unicode="&#xe1;" horiz-adv-x="577" 
d="M271 409q-69 0 -111 -49.5t-42 -119.5q0 -73 40 -124q43 -55 114 -55q74 0 117 53q40 49 40 125q0 73 -43 121.5t-115 48.5zM505 470v-470h-80v65h-2q-61 -78 -162 -78q-100 0 -164 75q-61 70 -61 172q0 105 60 175q63 74 166 74q99 0 161 -80h2v67h80zM370 720l49 -51
l-158 -103l-14 37z" />
    <glyph glyph-name="agrave" unicode="&#xe0;" horiz-adv-x="577" 
d="M271 409q-69 0 -111 -49.5t-42 -119.5q0 -73 40 -124q43 -55 114 -55q74 0 117 53q40 49 40 125q0 73 -43 121.5t-115 48.5zM505 470v-470h-80v65h-2q-61 -78 -162 -78q-100 0 -164 75q-61 70 -61 172q0 105 60 175q63 74 166 74q99 0 161 -80h2v67h80zM277 604l-15 -37
l-157 103l49 51z" />
    <glyph glyph-name="acircumflex" unicode="&#xe2;" horiz-adv-x="577" 
d="M271 409q-69 0 -111 -49.5t-42 -119.5q0 -73 40 -124q43 -55 114 -55q74 0 117 53q40 49 40 125q0 73 -43 121.5t-115 48.5zM505 470v-470h-80v65h-2q-61 -78 -162 -78q-100 0 -164 75q-61 70 -61 172q0 105 60 175q63 74 166 74q99 0 161 -80h2v67h80zM142 563l120 101
l120 -101l-43 -36l-77 66l-76 -66z" />
    <glyph glyph-name="adieresis" unicode="&#xe4;" horiz-adv-x="577" 
d="M271 409q-68 0 -110.5 -49.5t-42.5 -119.5q0 -73 40 -124q43 -55 114 -55q74 0 117 53q40 49 40 125q0 73 -43 121.5t-115 48.5zM505 470v-470h-80v65h-2q-61 -78 -162 -78q-100 0 -164 75q-61 70 -61 172q0 105 60 175q63 74 166 74q99 0 161 -80h2v67h80zM190 705
q23 0 38.5 -15.5t15.5 -38.5t-15.5 -38.5t-38.5 -15.5q-22 0 -38 16t-16 38q0 23 15.5 38.5t38.5 15.5zM387 705q23 0 38.5 -15.5t15.5 -38.5t-15.5 -38.5t-38.5 -15.5q-22 0 -38 16t-16 38q0 23 15.5 38.5t38.5 15.5z" />
    <glyph glyph-name="atilde" unicode="&#xe3;" horiz-adv-x="577" 
d="M271 409q-69 0 -111 -49.5t-42 -119.5q0 -73 40 -124q43 -55 114 -55q74 0 117 53q40 49 40 125q0 73 -43 121.5t-115 48.5zM505 470v-470h-80v65h-2q-61 -78 -162 -78q-100 0 -164 75q-61 70 -61 172q0 105 60 175q63 74 166 74q99 0 161 -80h2v67h80zM142 566l-21 27
q68 60 110 60q18 0 50.5 -16.5t39.5 -16.5q22 0 63 37l19 -26q-58 -62 -113 -62q-16 0 -45.5 16t-45.5 16q-22 0 -57 -35z" />
    <glyph glyph-name="aring" unicode="&#xe5;" horiz-adv-x="577" 
d="M271 409q-68 0 -110.5 -49.5t-42.5 -119.5q0 -73 40 -124q43 -55 114 -55q74 0 117 53q40 49 40 125q0 73 -43 121.5t-115 48.5zM505 470v-470h-80v65h-2q-61 -78 -162 -78q-100 0 -164 75q-61 70 -61 172q0 105 60 175q63 74 166 74q99 0 161 -80h2v67h80zM290 772
q40 0 68.5 -28.5t28.5 -68.5q0 -41 -28 -69.5t-69 -28.5q-40 0 -69 29t-29 69t29 68.5t69 28.5zM290 722q-20 0 -34 -13.5t-14 -33.5q0 -19 14.5 -33.5t33.5 -14.5q20 0 33.5 14t13.5 34t-13.5 33.5t-33.5 13.5z" />
    <glyph glyph-name="ccedilla" unicode="&#xe7;" horiz-adv-x="476" 
d="M425 436v-106h-2q-62 79 -146 79q-72 0 -119 -50.5t-47 -123.5t44 -122q46 -52 118 -52q91 0 153 81h2v-107q-71 -48 -149 -48q-108 0 -179 70t-71 178q0 106 72.5 177t178.5 71q79 0 145 -47zM324 -53l-114 -146l-56 28l96 148z" />
    <glyph glyph-name="eacute" unicode="&#xe9;" horiz-adv-x="519" 
d="M485 218h-369q1 -68 43.5 -112.5t110.5 -44.5q89 0 143 97l68 -39q-71 -132 -217 -132q-104 0 -168 70q-62 67 -62 172q0 109 59 179q62 75 169 75q109 0 171 -80q58 -74 52 -185zM120 286h281q-8 52 -47 87.5t-91 35.5q-53 0 -94.5 -35.5t-48.5 -87.5zM370 720l49 -51
l-158 -103l-14 37z" />
    <glyph glyph-name="egrave" unicode="&#xe8;" horiz-adv-x="519" 
d="M485 218h-369q1 -68 43.5 -112.5t110.5 -44.5q89 0 143 97l68 -39q-71 -132 -217 -132q-104 0 -168 70q-62 67 -62 172q0 109 59 179q62 75 169 75q109 0 171 -80q58 -74 52 -185zM120 286h281q-8 52 -47 87.5t-91 35.5q-53 0 -94.5 -35.5t-48.5 -87.5zM277 602l-15 -37
l-157 103l49 51z" />
    <glyph glyph-name="ecircumflex" unicode="&#xea;" horiz-adv-x="519" 
d="M485 218h-369q1 -68 43.5 -112.5t110.5 -44.5q89 0 143 97l68 -39q-71 -132 -217 -132q-104 0 -168 70q-62 67 -62 172q0 109 59 179q62 75 169 75q109 0 171 -80q58 -74 52 -185zM120 286h281q-8 52 -47 87.5t-91 35.5q-53 0 -94.5 -35.5t-48.5 -87.5zM142 563l120 101
l120 -101l-43 -36l-77 66l-76 -66z" />
    <glyph glyph-name="edieresis" unicode="&#xeb;" horiz-adv-x="519" 
d="M485 218h-369q1 -68 44 -112.5t110 -44.5q89 0 143 97l68 -39q-71 -132 -217 -132q-104 0 -167 69t-63 173q0 109 59 179q62 75 169 75q109 0 171 -80q58 -74 52 -185zM120 286h281q-8 52 -47 87.5t-91 35.5q-53 0 -94.5 -35.5t-48.5 -87.5zM161 705q23 0 38.5 -15.5
t15.5 -38.5t-15.5 -38.5t-38.5 -15.5q-22 0 -38 16t-16 38q0 23 15.5 38.5t38.5 15.5zM358 705q23 0 38.5 -15.5t15.5 -38.5t-15.5 -38.5t-38.5 -15.5q-22 0 -38 16t-16 38q0 23 15.5 38.5t38.5 15.5z" />
    <glyph glyph-name="iacute" unicode="&#xed;" horiz-adv-x="262" 
d="M171 470v-470h-80v470h80zM239 696l49 -51l-158 -103l-14 37z" />
    <glyph glyph-name="igrave" unicode="&#xec;" horiz-adv-x="262" 
d="M171 470v-470h-80v470h80zM148 579l-15 -37l-157 103l49 51z" />
    <glyph glyph-name="icircumflex" unicode="&#xee;" horiz-adv-x="262" 
d="M171 470v-470h-80v470h80zM-26 604l156 133l158 -133l-58 -45l-100 85l-99 -85z" />
    <glyph glyph-name="idieresis" unicode="&#xef;" horiz-adv-x="262" 
d="M171 470v-470h-80v470h80zM33 705q23 0 38.5 -15.5t15.5 -38.5t-15.5 -38.5t-38.5 -15.5q-22 0 -38 16t-16 38q0 23 15.5 38.5t38.5 15.5zM230 705q23 0 38.5 -15.5t15.5 -38.5t-15.5 -38.5t-38.5 -15.5q-22 0 -38 16t-16 38q0 23 15.5 38.5t38.5 15.5z" />
    <glyph glyph-name="ntilde" unicode="&#xf1;" horiz-adv-x="528" 
d="M156 470v-57h2q51 70 134 70q160 0 160 -204v-279h-80v265q0 71 -15 101q-21 43 -84 43q-74 0 -100 -61q-17 -40 -17 -125v-223h-80v470h80zM138 588v0l-49 39q45 79 102 79q27 0 78.5 -23t66.5 -23q30 0 56 48l47 -38q-33 -81 -106 -81q-24 0 -73 22.5t-72 22.5
q-29 0 -50 -46z" />
    <glyph glyph-name="oacute" unicode="&#xf3;" horiz-adv-x="562" 
d="M281 -13q-106 0 -176.5 70.5t-70.5 176.5t70.5 177.5t176.5 71.5t176.5 -71.5t70.5 -177.5t-70.5 -176.5t-176.5 -70.5zM281 409q-74 0 -120.5 -49.5t-46.5 -124.5t46.5 -124.5t120.5 -49.5t120.5 49.5t46.5 124.5t-46.5 124.5t-120.5 49.5zM390 720l49 -51l-158 -103
l-14 37z" />
    <glyph glyph-name="ograve" unicode="&#xf2;" horiz-adv-x="562" 
d="M281 -13q-106 0 -176.5 70.5t-70.5 176.5t70.5 177.5t176.5 71.5t176.5 -71.5t70.5 -177.5t-70.5 -176.5t-176.5 -70.5zM281 409q-74 0 -120.5 -49.5t-46.5 -124.5t46.5 -124.5t120.5 -49.5t120.5 49.5t46.5 124.5t-46.5 124.5t-120.5 49.5zM298 603l-15 -37l-157 103
l49 51z" />
    <glyph glyph-name="ocircumflex" unicode="&#xf4;" horiz-adv-x="562" 
d="M281 -13q-106 0 -176.5 70.5t-70.5 176.5t70.5 177.5t176.5 71.5t176.5 -71.5t70.5 -177.5t-70.5 -176.5t-176.5 -70.5zM281 409q-74 0 -120.5 -49.5t-46.5 -124.5t46.5 -124.5t120.5 -49.5t120.5 49.5t46.5 124.5t-46.5 124.5t-120.5 49.5zM162 563l120 101l120 -101
l-43 -36l-77 66l-76 -66z" />
    <glyph glyph-name="odieresis" unicode="&#xf6;" horiz-adv-x="562" 
d="M281 -13q-105 0 -176 71t-71 176t71 177t176 72t176 -72t71 -177t-71 -176t-176 -71zM281 409q-74 0 -120.5 -50t-46.5 -124t46.5 -124t120.5 -50t120.5 50t46.5 124t-46.5 124t-120.5 50zM183 705q23 0 38.5 -15.5t15.5 -38.5t-15.5 -38.5t-38.5 -15.5q-22 0 -38 16
t-16 38q0 23 15.5 38.5t38.5 15.5zM380 705q23 0 38.5 -15.5t15.5 -38.5t-15.5 -38.5t-38.5 -15.5q-22 0 -38 16t-16 38q0 23 15.5 38.5t38.5 15.5z" />
    <glyph glyph-name="otilde" unicode="&#xf5;" horiz-adv-x="562" 
d="M281 -13q-106 0 -176.5 70.5t-70.5 176.5t70.5 177.5t176.5 71.5t176.5 -71.5t70.5 -177.5t-70.5 -176.5t-176.5 -70.5zM281 409q-74 0 -120.5 -49.5t-46.5 -124.5t46.5 -124.5t120.5 -49.5t120.5 49.5t46.5 124.5t-46.5 124.5t-120.5 49.5zM162 566l-21 27q68 60 110 60
q18 0 50.5 -16.5t39.5 -16.5q22 0 63 37l19 -26q-58 -62 -113 -62q-16 0 -45.5 16t-45.5 16q-22 0 -57 -35z" />
    <glyph glyph-name="uacute" unicode="&#xfa;" horiz-adv-x="512" 
d="M150 470v-262q0 -71 17 -103q24 -44 89 -44t89 44q17 32 17 103v262h80v-271q0 -212 -186 -212t-186 212v271h80zM366 683l49 -51l-158 -103l-14 37z" />
    <glyph glyph-name="ugrave" unicode="&#xf9;" horiz-adv-x="512" 
d="M150 470v-262q0 -71 17 -103q24 -44 89 -44t89 44q17 32 17 103v262h80v-271q0 -212 -186 -212t-186 212v271h80zM272 565l-15 -37l-157 103l49 51z" />
    <glyph glyph-name="ucircumflex" unicode="&#xfb;" horiz-adv-x="512" 
d="M150 470v-262q0 -71 17 -103q24 -44 89 -44t89 44q17 32 17 103v262h80v-271q0 -212 -186 -212t-186 212v271h80zM99 604l156 133l158 -133l-58 -45l-100 85l-99 -85z" />
    <glyph glyph-name="udieresis" unicode="&#xfc;" horiz-adv-x="512" 
d="M150 470v-262q0 -71 17 -103q24 -44 89 -44t89 44q17 32 17 103v262h80v-271q0 -212 -186 -212t-186 212v271h80zM158 705q23 0 38.5 -15.5t15.5 -38.5t-15.5 -38.5t-38.5 -15.5q-22 0 -38 16t-16 38q0 23 15.5 38.5t38.5 15.5zM355 705q23 0 38.5 -15.5t15.5 -38.5
t-15.5 -38.5t-38.5 -15.5q-22 0 -38 16t-16 38q0 23 15.5 38.5t38.5 15.5z" />
    <glyph glyph-name="degree" unicode="&#xb0;" horiz-adv-x="400" 
d="M350 617q0 -62 -44 -106t-106 -44t-106 44t-44 106t44 106t106 44t106 -44t44 -106zM302 617q0 43 -30 72.5t-73 29.5q-42 0 -71.5 -30t-29.5 -72q0 -43 29.5 -72.5t72.5 -29.5t72.5 29.5t29.5 72.5z" />
    <glyph glyph-name="registered" unicode="&#xae;" horiz-adv-x="800" 
d="M400 -13q-166 0 -279 112.5t-113 277.5t113 277.5t279 112.5t279 -112.5t113 -277.5t-113 -277.5t-279 -112.5zM400 47q138 0 235 96t97 234t-97 234t-235 96t-235 -96t-97 -234t97 -234t235 -96zM457 363l129 -197h-72l-128 197h-72v-197h-60v427h186q152 0 152 -113
t-135 -117zM314 423h72q72 0 93 4q53 10 53 54q0 52 -104 52h-114v-110z" />
    <glyph glyph-name="copyright" unicode="&#xa9;" horiz-adv-x="800" 
d="M400 -13q-166 0 -279 112.5t-113 277.5t113 277.5t279 112.5t279 -112.5t113 -277.5t-113 -277.5t-279 -112.5zM400 47q138 0 235 96t97 234t-97 234t-235 96t-235 -96t-97 -234t97 -234t235 -96zM599 457h-61q-19 88 -124 88q-71 0 -113.5 -46t-42.5 -117q0 -72 43 -119
t115 -47q100 0 122 91h61q-9 -69 -60.5 -110t-122.5 -41q-96 0 -157 64t-61 160q0 100 58.5 162.5t158.5 62.5q71 0 121 -39.5t63 -108.5z" />
    <glyph glyph-name="trademark" unicode="&#x2122;" horiz-adv-x="940" 
d="M905 754v-421h-60v361h-2l-144 -361h-39l-140 361h-2v-361h-60v421h101l121 -303l125 303h100zM377 754v-60h-140v-361h-60v361h-141v60h341z" />
    <glyph glyph-name="plusminus" unicode="&#xb1;" 
d="M269 498h78v-153h203v-78h-203v-153h-78v153h-203v78h203v153zM66 0v78h484v-78h-484z" />
    <glyph glyph-name="mu" unicode="&#xb5;" horiz-adv-x="512" 
d="M150 470v-262q0 -71 17 -103q24 -44 89 -44t89 44q17 32 17 103v262h80v-271q0 -212 -186 -212q-57 0 -106 47v-298h-80v734h80z" />
    <glyph glyph-name="mu" unicode="&#x3bc;" horiz-adv-x="512" 
d="M150 470v-262q0 -71 17 -103q24 -44 89 -44t89 44q17 32 17 103v262h80v-271q0 -212 -186 -212q-57 0 -106 47v-298h-80v734h80z" />
    <glyph glyph-name="logicalnot" unicode="&#xac;" 
d="M472 103v192h-406v78h484v-270h-78z" />
    <glyph glyph-name="Agrave" unicode="&#xc0;" horiz-adv-x="699" 
d="M370 886l-15 -39l-166 109l52 53zM693 0h-93l-89 214h-322l-91 -214h-92l348 790zM478 292l-126 302l-129 -302h255z" />
    <glyph glyph-name="Atilde" unicode="&#xc3;" horiz-adv-x="699" 
d="M511 214h-322l-91 -214h-92l348 790l339 -790h-93zM478 292l-126 302l-129 -302h255zM228 847l-22 28q69 63 115 63q19 0 53 -17t42 -17q25 0 66 39l21 -28q-61 -65 -119 -65q-16 0 -49 17t-47 17q-23 0 -60 -37z" />
    <glyph glyph-name="Otilde" unicode="&#xd5;" horiz-adv-x="862" 
d="M431 767q165 0 279 -113t114 -278t-114 -277t-279 -112t-279 112t-114 277t114 278t279 113zM431 689q-132 0 -220.5 -90t-88.5 -222q0 -131 89 -221.5t220 -90.5t220 90.5t89 221.5q0 132 -88.5 222t-220.5 90zM305 848l-22 28q69 63 115 63q19 0 53 -17t42 -17
q25 0 66 39l21 -28q-61 -65 -119 -65q-16 0 -49 17t-47 17q-23 0 -60 -37z" />
    <glyph glyph-name="divide" unicode="&#xf7;" 
d="M66 217v78h484v-78h-484zM308 124q23 0 40 -17t17 -40q0 -24 -16.5 -40.5t-40.5 -16.5t-40.5 16.5t-16.5 40.5q0 23 17 40t40 17zM308 502q23 0 40 -17t17 -40q0 -24 -16.5 -40.5t-40.5 -16.5t-40.5 16.5t-16.5 40.5q0 23 17 40t40 17z" />
    <glyph glyph-name="ydieresis" unicode="&#xff;" horiz-adv-x="498" 
d="M214 44l-216 426h93l166 -337l152 337h91l-347 -734h-91zM151 705q23 0 38.5 -15.5t15.5 -38.5t-15.5 -38.5t-38.5 -15.5q-22 0 -38 16t-16 38q0 23 15.5 38.5t38.5 15.5zM348 705q23 0 38.5 -15.5t15.5 -38.5t-15.5 -38.5t-38.5 -15.5q-22 0 -38 16t-16 38
q0 23 15.5 38.5t38.5 15.5z" />
    <glyph glyph-name="Ydieresis" unicode="&#x178;" horiz-adv-x="593" 
d="M255 324l-247 430h97l192 -336l192 336h97l-247 -430v-324h-84v324zM198 989q23 0 38.5 -15.5t15.5 -38.5t-15.5 -38.5t-38.5 -15.5q-22 0 -38 16t-16 38q0 23 15.5 38.5t38.5 15.5zM395 989q23 0 38.5 -15.5t15.5 -38.5t-15.5 -38.5t-38.5 -15.5q-22 0 -38 16t-16 38
q0 23 15.5 38.5t38.5 15.5z" />
    <glyph glyph-name="Acircumflex" unicode="&#xc2;" horiz-adv-x="699" 
d="M511 214h-322l-91 -214h-92l348 790l339 -790h-93zM478 292l-126 302l-129 -302h255zM228 850l126 107l127 -107l-46 -37l-81 69l-80 -69z" />
    <glyph glyph-name="Ecircumflex" unicode="&#xca;" horiz-adv-x="534" 
d="M76 0v754h391v-78h-307v-224h298v-78h-298v-296h307v-78h-391zM144 840l126 107l127 -107l-46 -37l-81 69l-80 -69z" />
    <glyph glyph-name="Aacute" unicode="&#xc1;" horiz-adv-x="699" 
d="M511 214h-322l-91 -214h-92l348 790l339 -790h-93zM478 292l-126 302l-129 -302h255zM467 1009l52 -53l-166 -109l-15 39z" />
    <glyph glyph-name="Edieresis" unicode="&#xcb;" horiz-adv-x="534" 
d="M76 0v754h391v-78h-307v-224h298v-78h-298v-296h307v-78h-391zM169 989q23 0 38.5 -15.5t15.5 -38.5t-15.5 -38.5t-38.5 -15.5q-22 0 -38 16t-16 38q0 23 15.5 38.5t38.5 15.5zM366 989q23 0 38.5 -15.5t15.5 -38.5t-15.5 -38.5t-38.5 -15.5q-22 0 -38 16t-16 38
q0 23 15.5 38.5t38.5 15.5z" />
    <glyph glyph-name="Egrave" unicode="&#xc8;" horiz-adv-x="534" 
d="M76 0v754h391v-78h-307v-224h298v-78h-298v-296h307v-78h-391zM286 878l-15 -39l-166 109l52 53z" />
    <glyph glyph-name="Iacute" unicode="&#xcd;" horiz-adv-x="239" 
d="M162 754v-754h-84v754h84zM234 988l52 -53l-166 -109l-15 39z" />
    <glyph glyph-name="Icircumflex" unicode="&#xce;" horiz-adv-x="239" 
d="M162 754v-754h-84v754h84zM-37 888l156 133l158 -133l-58 -45l-100 85l-99 -85z" />
    <glyph glyph-name="Idieresis" unicode="&#xcf;" horiz-adv-x="239" 
d="M162 754v-754h-84v754h84zM21 989q23 0 38.5 -15.5t15.5 -38.5t-15.5 -38.5t-38.5 -15.5q-22 0 -38 16t-16 38q0 23 15.5 38.5t38.5 15.5zM218 989q23 0 38.5 -15.5t15.5 -38.5t-15.5 -38.5t-38.5 -15.5q-22 0 -38 16t-16 38q0 23 15.5 38.5t38.5 15.5z" />
    <glyph glyph-name="Igrave" unicode="&#xcc;" horiz-adv-x="239" 
d="M162 754v-754h-84v754h84zM136 866l-15 -39l-166 109l52 53z" />
    <glyph glyph-name="Oacute" unicode="&#xd3;" horiz-adv-x="862" 
d="M431 767q165 0 279 -113t114 -278t-114 -277t-279 -112t-279 112t-114 277t114 278t279 113zM431 689q-132 0 -220.5 -90t-88.5 -222q0 -131 89 -221.5t220 -90.5t220 90.5t89 221.5q0 132 -88.5 222t-220.5 90zM544 1011l52 -53l-166 -109l-15 39z" />
    <glyph glyph-name="Ocircumflex" unicode="&#xd4;" horiz-adv-x="862" 
d="M431 767q165 0 279 -113t114 -278t-114 -277t-279 -112t-279 112t-114 277t114 278t279 113zM431 689q-132 0 -220.5 -90t-88.5 -222q0 -131 89 -221.5t220 -90.5t220 90.5t89 221.5q0 132 -88.5 222t-220.5 90zM305 840l126 107l127 -107l-46 -37l-81 69l-80 -69z" />
    <glyph glyph-name="Ograve" unicode="&#xd2;" horiz-adv-x="862" 
d="M431 767q165 0 279 -113t114 -278t-114 -277t-279 -112t-279 112t-114 277t114 278t279 113zM431 689q-132 0 -220.5 -90t-88.5 -222q0 -131 89 -221.5t220 -90.5t220 90.5t89 221.5q0 132 -88.5 222t-220.5 90zM447 887l-15 -39l-166 109l52 53z" />
    <glyph glyph-name="Uacute" unicode="&#xda;" horiz-adv-x="685" 
d="M158 754v-449q0 -65 3 -87q13 -95 98 -134q41 -19 84 -19q93 0 148 67q25 31 33 82q4 26 4 91v449h84v-472q0 -70 -11 -112q-15 -55 -55 -97q-82 -86 -203 -86q-115 0 -195 77q-45 44 -62 101q-12 41 -12 117v472h84zM455 965l52 -53l-166 -109l-15 39z" />
    <glyph glyph-name="Ucircumflex" unicode="&#xdb;" horiz-adv-x="685" 
d="M158 754v-449q0 -65 3 -87q13 -95 98 -134q41 -19 84 -19q93 0 148 67q25 31 33 82q4 26 4 91v449h84v-472q0 -70 -11 -112q-15 -55 -55 -97q-82 -86 -203 -86q-115 0 -195 77q-45 44 -62 101q-12 41 -12 117v472h84zM186 888l156 133l158 -133l-58 -45l-100 85l-99 -85z
" />
    <glyph glyph-name="Ugrave" unicode="&#xd9;" horiz-adv-x="685" 
d="M158 754v-449q0 -65 3 -87q13 -95 98 -134q41 -19 84 -19q93 0 148 67q25 31 33 82q4 26 4 91v449h84v-472q0 -70 -11 -112q-15 -55 -55 -97q-82 -86 -203 -86q-115 0 -195 77q-45 44 -62 101q-12 41 -12 117v472h84zM358 842l-15 -39l-166 109l52 53z" />
    <glyph glyph-name="glyph231" horiz-adv-x="308" 
 />
    <glyph glyph-name="glyph232" horiz-adv-x="308" 
 />
    <glyph glyph-name="glyph258" horiz-adv-x="278" 
 />
    <glyph glyph-name="glyph259" horiz-adv-x="278" 
 />
    <glyph glyph-name="sfthyphen" unicode="&#xad;" horiz-adv-x="338" 
d="M8 174l33 122h246l-33 -122h-246z" />
    <glyph glyph-name="Cacute" unicode="&#x106;" horiz-adv-x="711" 
d="M651 693v-104q-97 100 -230 100q-127 0 -215.5 -92t-88.5 -220t89 -220t217 -92t228 100v-104q-102 -74 -225 -74q-162 0 -277.5 112.5t-115.5 274.5q0 164 114.5 278.5t278.5 114.5q126 0 225 -74zM374 999l84 -38l-153 -154l-50 28z" />
    <glyph glyph-name="cacute" unicode="&#x107;" horiz-adv-x="441" 
d="M425 436v-106h-2q-62 79 -146 79q-72 0 -119 -50.5t-47 -123.5t44 -122q46 -52 118 -52q91 0 153 81h2v-107q-71 -48 -149 -48q-108 0 -179 70t-71 178q0 106 72.5 177t178.5 71q79 0 145 -47zM175 744l84 -38l-153 -154l-50 28z" />
    <glyph glyph-name="Ccaron" unicode="&#x10c;" horiz-adv-x="711" 
d="M651 693v-104q-97 100 -230 100q-127 0 -215.5 -92t-88.5 -220t89 -220t217 -92t228 100v-104q-102 -74 -225 -74q-162 0 -277.5 112.5t-115.5 274.5q0 164 114.5 278.5t278.5 114.5q126 0 225 -74zM569 947l-156 -133l-158 133l58 45l100 -85l99 85z" />
    <glyph glyph-name="ccaron" unicode="&#x10d;" horiz-adv-x="441" 
d="M425 436v-106h-2q-62 79 -146 79q-72 0 -119 -50.5t-47 -123.5t44 -122q46 -52 118 -52q91 0 153 81h2v-107q-71 -48 -149 -48q-108 0 -179 70t-71 178q0 106 72.5 177t178.5 71q79 0 145 -47zM370 692l-156 -133l-158 133l58 45l100 -85l99 85z" />
    <glyph glyph-name="Dslash" unicode="&#x110;" horiz-adv-x="678" 
d="M76 0v370h-76v78h76v306h142q94 0 156 -17q76 -21 138 -74q125 -107 125 -287q0 -172 -123 -281q-64 -57 -138 -78q-60 -17 -160 -17h-140zM160 78h61q147 0 236 75q96 80 96 224t-96 224q-89 75 -236 75h-61v-228h134v-78h-134v-292z" />
    <glyph glyph-name="dcroat" unicode="&#x111;" horiz-adv-x="577" 
d="M271 409q-69 0 -111 -49.5t-42 -119.5q0 -73 40 -124q43 -55 114 -55q74 0 117 53q40 49 40 125q0 73 -43 121.5t-115 48.5zM425 549h-168v56h168v220h80v-220h71v-56h-71v-549h-80v65h-2q-60 -78 -162 -78q-100 0 -164 75q-61 70 -61 172q0 105 60 175q63 74 166 74
q100 0 161 -80h2v146z" />
    <glyph glyph-name="Gbreve" unicode="&#x11e;" horiz-adv-x="767" 
d="M463 379h314q2 -86 -12 -141q-18 -68 -66 -125q-51 -60 -125 -93t-154 -33q-161 0 -274.5 113.5t-113.5 274.5q0 165 114 278.5t279 113.5q194 0 319 -163l-61 -57q-101 142 -259 142q-130 0 -219 -92t-89 -223q0 -124 89.5 -216.5t212.5 -92.5q105 0 184 65
q85 68 85 171h-224v78zM275 971h69q26 -68 95 -68t95 68h69q-8 -62 -54 -99t-110 -37q-62 0 -109 37.5t-55 98.5z" />
    <glyph glyph-name="gbreve" unicode="&#x11f;" horiz-adv-x="492" 
d="M266 409q-68 0 -110.5 -49.5t-42.5 -119.5q0 -73 40 -124q43 -55 114 -55q74 0 117 53q40 49 40 125q0 73 -43 121.5t-115 48.5zM500 470v-447q0 -73 -6 -106q-10 -55 -42 -96q-65 -83 -182 -83q-100 0 -164.5 58.5t-66.5 157.5h80q1 -65 42.5 -103.5t107.5 -38.5
q151 0 151 197v56h-2q-60 -78 -163 -78q-101 0 -164 74q-60 69 -60 172q0 104 61 175q64 75 166 75q100 0 160 -80h2v67h80zM75 716h69q26 -68 95 -68t95 68h69q-8 -62 -54 -99t-110 -37q-62 0 -109 37.5t-55 98.5z" />
    <glyph glyph-name="Idotaccent" unicode="&#x130;" horiz-adv-x="429" 
d="M162 754v-754h-84v754h84zM206 971q23 0 38.5 -15.5t15.5 -38.5t-15.5 -38.5t-38.5 -15.5q-22 0 -38 16t-16 38q0 23 15.5 38.5t38.5 15.5z" />
    <glyph glyph-name="Scedilla" unicode="&#x15e;" horiz-adv-x="656" 
d="M485 650l-67 -43q-47 82 -130 82q-52 0 -88.5 -33t-36.5 -84q0 -43 40 -75q24 -19 78 -43l50 -22q89 -39 127 -77q54 -53 54 -135q0 -99 -68.5 -166t-168.5 -67q-90 0 -153.5 53t-81.5 142l82 23q8 -60 49.5 -100t101.5 -40q63 0 109 42t46 105q0 59 -43 96
q-29 25 -96 54l-46 20q-80 35 -115 70q-49 49 -49 123q0 86 64 140q60 52 147 52q132 0 195 -117zM287 -53l-114 -146l-56 28l96 148z" />
    <glyph glyph-name="scedilla" unicode="&#x15f;" horiz-adv-x="383" 
d="M333 396l-67 -35q-21 48 -64 48q-22 0 -40 -15t-18 -37q0 -34 57 -60q91 -41 104 -50q57 -39 57 -107q0 -67 -46 -110t-113 -43q-59 0 -103 31.5t-63 87.5l71 30q34 -75 96 -75q33 0 54.5 20t21.5 52q0 43 -61 74q-32 15 -96 44q-55 36 -55 99q0 59 40.5 96t99.5 37
q40 0 74.5 -24.5t50.5 -62.5zM190 -53l-114 -146l-56 28l96 148z" />
    <glyph glyph-name="franc" unicode="&#x20a3;" horiz-adv-x="1035" 
d="M419 676h-259v-224h251v-78h-251v-374h-84v754h343v-78zM804 470v-51h2q48 64 104 64q33 0 72 -22l-38 -73q-31 21 -48 21q-92 0 -92 -174v-235h-80v470h80z" />
    <glyph glyph-name="u20AB" unicode="&#x20ab;" horiz-adv-x="393" 
d="M197 501q-48 0 -84 -88q-20 -49 -20 -90q0 -51 39 -51q41 0 74 71q28 60 28 107q0 51 -37 51zM200 267q-53 -62 -106 -62q-91 0 -91 102q0 82 54 153q58 78 137 78q34 0 61 -24l20 75h-100l10 36h100l2 16q0 31 -48 32l7 33q68 2 128 14l15 3q6 0 6 -9l-3 -12l-19 -77h65
l-10 -36h-65l-69 -280q-5 -20 -5 -27q0 -15 12 -15q6 0 49 42l20 -18q-70 -86 -117 -86q-43 0 -53 62zM9 160h221v-56h-221v56z" />
    <glyph glyph-name="SF370000" unicode="&#x255f;" horiz-adv-x="718" 
d="M511 214h-322l-91 -214h-92l348 790l339 -790h-93zM478 292l-126 302l-129 -302h255z" />
    <glyph glyph-name="SF420000" unicode="&#x2560;" horiz-adv-x="681" 
d="M76 0v754h391v-78h-307v-224h298v-78h-298v-296h307v-78h-391z" />
    <glyph glyph-name="SF190000" unicode="&#x2561;" horiz-adv-x="429" 
d="M162 754v-754h-84v754h84z" />
    <glyph glyph-name="SF200000" unicode="&#x2562;" horiz-adv-x="773" 
d="M431 767q164 0 278.5 -113.5t114.5 -277.5t-114.5 -276.5t-278.5 -112.5t-278.5 112.5t-114.5 276.5t114.5 277.5t278.5 113.5zM431 689q-131 0 -220 -90.5t-89 -221.5q0 -130 89.5 -221t219.5 -91t219.5 91t89.5 221q0 131 -89 221.5t-220 90.5z" />
    <glyph glyph-name="SF230000" unicode="&#x2563;" horiz-adv-x="811" 
d="M158 754v-449q0 -65 3 -87q13 -95 98 -134q41 -19 84 -19q93 0 148 67q25 31 33 82q4 26 4 91v449h84v-472q0 -70 -11 -112q-15 -55 -55 -97q-82 -86 -203 -86q-115 0 -195 77q-45 44 -62 101q-12 41 -12 117v472h84z" />
    <glyph glyph-name="SF470000" unicode="&#x2564;" horiz-adv-x="699" 
d="M255 324l-247 430h97l192 -336l192 336h97l-247 -430v-324h-84v324z" />
    <glyph glyph-name="SF480000" unicode="&#x2565;" horiz-adv-x="541" 
d="M271 409q-68 0 -110.5 -49.5t-42.5 -119.5q0 -73 40 -124q43 -55 114 -55q74 0 117 53q40 49 40 125q0 73 -43 121.5t-115 48.5zM505 470v-470h-80v65h-2q-61 -78 -162 -78q-100 0 -164 75q-61 70 -61 172q0 105 60 175q63 74 166 74q99 0 161 -80h2v67h80z" />
    <glyph glyph-name="SF410000" unicode="&#x2566;" horiz-adv-x="431" 
d="M485 218h-369q1 -68 44 -112.5t110 -44.5q89 0 143 97l68 -39q-71 -132 -217 -132q-104 0 -167 69t-63 173q0 109 59 179q62 75 169 75q109 0 171 -80q58 -74 52 -185zM120 286h281q-8 52 -47 87.5t-91 35.5q-53 0 -94.5 -35.5t-48.5 -87.5z" />
    <glyph glyph-name="SF450000" unicode="&#x2567;" horiz-adv-x="314" 
d="M171 470v-470h-80v470h80zM131 704q23 0 40 -17t17 -40q0 -24 -16.5 -40.5t-40.5 -16.5t-40.5 16.5t-16.5 40.5q0 23 17 40t40 17z" />
    <glyph glyph-name="SF460000" unicode="&#x2568;" horiz-adv-x="314" 
d="M171 470v-470h-80v470h80z" />
    <glyph glyph-name="SF400000" unicode="&#x2569;" horiz-adv-x="498" 
d="M281 -13q-105 0 -176 71t-71 176t71 177t176 72t176 -72t71 -177t-71 -176t-176 -71zM281 409q-74 0 -120.5 -50t-46.5 -124t46.5 -124t120.5 -50t120.5 50t46.5 124t-46.5 124t-120.5 50z" />
    <glyph glyph-name="SF540000" unicode="&#x256a;" horiz-adv-x="557" 
d="M150 470v-262q0 -71 17 -103q24 -44 89 -44t89 44q17 32 17 103v262h80v-271q0 -212 -186 -212t-186 212v271h80z" />
    <glyph glyph-name="SF530000" unicode="&#x256b;" horiz-adv-x="497" 
d="M214 44l-216 426h93l166 -337l152 337h91l-347 -734h-91z" />
    <glyph glyph-name="circle" unicode="&#x25cb;" horiz-adv-x="718" 
d="M306 836l156 133l158 -133l-58 -45l-100 85l-99 -85zM399 1164l84 -38l-153 -154l-50 28z" />
    <glyph glyph-name="H18533" unicode="&#x25cf;" horiz-adv-x="718" 
d="M306 836l156 133l158 -133l-58 -45l-100 85l-99 -85zM389 1127l84 38l119 -164l-50 -28z" />
    <glyph glyph-name="invbullet" unicode="&#x25d8;" horiz-adv-x="718" 
d="M306 836l156 133l158 -133l-58 -45l-100 85l-99 -85zM614 903q9 27 11 64q1 11 8 13q3 0 8 1q67 11 67 54q0 35 -28 35q-5 0 -14 -1t-14 -1q-21 0 -21 18q0 28 32 28q47 0 76.5 -25t25.5 -71q-6 -59 -87 -81q-25 -7 -31 -34h-33z" />
    <glyph glyph-name="invcircle" unicode="&#x25d9;" horiz-adv-x="718" 
d="M306 836l156 133l158 -133l-58 -45l-100 85l-99 -85zM402 1008v0l-49 39q45 79 102 79q27 0 78.5 -23t66.5 -23q30 0 56 48l47 -38q-33 -81 -106 -81q-24 0 -73 22.5t-72 22.5q-29 0 -50 -46z" />
    <glyph glyph-name="glyph275" horiz-adv-x="249" 
 />
    <glyph glyph-name="glyph276" horiz-adv-x="249" 
 />
    <glyph glyph-name="ch270" unicode="&#xb7;" horiz-adv-x="249" 
d="M38 348q0 34 23 57t57 23t57.5 -23t23.5 -57t-23.5 -57.5t-57.5 -23.5t-57 23.5t-23 57.5z" />
    <glyph glyph-name="ch270" unicode="&#x2219;" horiz-adv-x="249" 
d="M38 348q0 34 23 57t57 23t57.5 -23t23.5 -57t-23.5 -57.5t-57.5 -23.5t-57 23.5t-23 57.5z" />
    <glyph glyph-name="euro" horiz-adv-x="498" 
d="M522 633l-23 -156l-48 6q0 157 -94 157q-103 0 -161 -211h172l-21 -48h-164q-6 -24 -16 -73h147l-21 -47h-134q-6 -41 -6 -74q0 -56 21 -91q26 -43 78 -43q58 0 101 68q24 38 51 119l55 -10l-54 -188q-77 -53 -159 -53q-111 0 -166 84q-47 71 -47 188h-74l21 47h56
q3 25 12 73h-66l21 48h59q41 112 108 183q83 88 187 88q94 0 165 -67z" />
    <glyph glyph-name="glyph261" horiz-adv-x="500" 
d="M253 522q9 27 11 64q1 11 8 13q3 0 8 1q67 11 67 54q0 35 -28 35q-5 0 -14 -1t-14 -1q-21 0 -21 18q0 28 32 28q47 0 76.5 -25t25.5 -71q-6 -59 -87 -81q-25 -7 -31 -34h-33z" />
    <glyph glyph-name="glyph262" horiz-adv-x="541" 
d="M103 604l156 133l158 -133l-58 -45l-100 85l-99 -85zM195 933l84 -38l-153 -154l-50 28z" />
    <glyph glyph-name="glyph263" horiz-adv-x="541" 
d="M103 604l156 133l158 -133l-58 -45l-100 85l-99 -85zM186 895l84 38l119 -164l-50 -28z" />
    <glyph glyph-name="glyph264" horiz-adv-x="541" 
d="M103 604l156 133l158 -133l-58 -45l-100 85l-99 -85zM411 671q9 27 11 64q1 11 8 13q3 0 8 1q67 11 67 54q0 35 -28 35q-5 0 -14 -1t-14 -1q-21 0 -21 18q0 28 32 28q47 0 76.5 -25t25.5 -71q-6 -59 -87 -81q-25 -7 -31 -34h-33z" />
    <glyph glyph-name="glyph265" horiz-adv-x="541" 
d="M103 604l156 133l158 -133l-58 -45l-100 85l-99 -85zM199 776v0l-49 39q45 79 102 79q27 0 78.5 -23t66.5 -23q30 0 56 48l47 -38q-33 -81 -106 -81q-24 0 -73 22.5t-72 22.5q-29 0 -50 -46z" />
    <glyph glyph-name="glyph266" horiz-adv-x="541" 
d="M109 715h69q26 -68 95 -68t95 68h69q-8 -62 -54 -99t-110 -37q-62 0 -109 37.5t-55 98.5zM274 933l84 -38l-153 -154l-50 28z" />
    <glyph glyph-name="glyph267" horiz-adv-x="541" 
d="M109 715h69q26 -68 95 -68t95 68h69q-8 -62 -54 -99t-110 -37q-62 0 -109 37.5t-55 98.5zM133 895l84 38l119 -164l-50 -28z" />
    <glyph glyph-name="glyph268" horiz-adv-x="541" 
d="M109 715h69q26 -68 95 -68t95 68h69q-8 -62 -54 -99t-110 -37q-62 0 -109 37.5t-55 98.5zM306 671q9 27 11 64q1 11 8 13q3 0 8 1q67 11 67 54q0 35 -28 35q-5 0 -14 -1t-14 -1q-21 0 -21 18q0 28 32 28q47 0 76.5 -25t25.5 -71q-6 -59 -87 -81q-25 -7 -31 -34h-33z" />
    <glyph glyph-name="glyph269" horiz-adv-x="541" 
d="M109 715h69q26 -68 95 -68t95 68h69q-8 -62 -54 -99t-110 -37q-62 0 -109 37.5t-55 98.5zM199 776v0l-49 39q45 79 102 79q27 0 78.5 -23t66.5 -23q30 0 56 48l47 -38q-33 -81 -106 -81q-24 0 -73 22.5t-72 22.5q-29 0 -50 -46z" />
    <glyph glyph-name="glyph270" horiz-adv-x="249" 
 />
    <glyph glyph-name="glyph271" unicode="&#x102;" horiz-adv-x="699" 
d="M511 214h-322l-91 -214h-92l348 790l339 -790h-93zM478 292l-126 302l-129 -302h255zM216 927h58q19 -48 81 -48t81 48h58q-13 -101 -139 -101q-55 0 -91 23q-42 27 -48 78z" />
    <glyph glyph-name="glyph272" unicode="&#x103;" horiz-adv-x="577" 
d="M271 409q-69 0 -111 -49.5t-42 -119.5q0 -73 40 -124q43 -55 114 -55q74 0 117 53q40 49 40 125q0 73 -43 121.5t-115 48.5zM505 470v-470h-80v65h-2q-61 -78 -162 -78q-100 0 -164 75q-61 70 -61 172q0 105 60 175q63 74 166 74q99 0 161 -80h2v67h80zM129 638h55
q19 -46 77 -46q59 0 77 46h55q-11 -96 -132 -96q-119 0 -132 96z" />
    <glyph glyph-name="glyph273" unicode="&#x128;" horiz-adv-x="239" 
d="M162 754v-754h-84v754h84zM-6 821l-22 28q69 63 115 63q19 0 53 -17t42 -17q25 0 66 39l21 -28q-61 -65 -119 -65q-16 0 -49 17t-47 17q-23 0 -60 -37z" />
    <glyph glyph-name="glyph274" unicode="&#x129;" horiz-adv-x="262" 
d="M171 470v-470h-80v470h80zM12 537l-21 27q68 60 110 60q18 0 50.5 -16.5t39.5 -16.5q22 0 63 37l19 -26q-58 -62 -113 -62q-16 0 -45.5 16t-45.5 16q-22 0 -57 -35z" />
    <glyph glyph-name="ch903" unicode="&#x168;" horiz-adv-x="685" 
d="M158 754v-449q0 -65 3 -87q13 -95 98 -134q41 -19 84 -19q93 0 148 67q25 31 33 82q4 26 4 91v449h84v-472q0 -70 -11 -112q-15 -55 -55 -97q-82 -86 -203 -86q-115 0 -195 77q-45 44 -62 101q-12 41 -12 117v472h84zM216 813l-22 28q69 63 115 63q19 0 53 -17t42 -17
q25 0 66 39l21 -28q-61 -65 -119 -65q-16 0 -49 17t-47 17q-23 0 -60 -37z" />
    <glyph glyph-name="ch904" unicode="&#x169;" horiz-adv-x="512" 
d="M150 470v-262q0 -71 17 -103q24 -44 89 -44t89 44q17 32 17 103v262h80v-271q0 -212 -186 -212t-186 212v271h80zM136 542l-21 27q68 60 110 60q18 0 50.5 -16.5t39.5 -16.5q22 0 63 37l19 -26q-58 -62 -113 -62q-16 0 -45.5 16t-45.5 16q-22 0 -57 -35z" />
    <glyph glyph-name="glyph277" unicode="&#x1a0;" horiz-adv-x="862" 
d="M431 689q-132 0 -220.5 -90t-88.5 -222q0 -131 89 -221.5t220 -90.5t220 90.5t89 221.5q0 132 -88.5 222t-220.5 90zM524 756l172 -5l-1 -1q36 17 36 37q0 17 -24 24q-18 6 -37 4l57 32q29 0 50 -13q25 -15 25 -42q0 -37 -42 -60q-31 -17 -75 -22l-43 -5
q85 -54 133.5 -141.5t48.5 -187.5q0 -165 -114 -277t-279 -112t-279 112t-114 277t114 278t279 113q46 0 93 -11z" />
    <glyph glyph-name="glyph278" unicode="&#x1a1;" horiz-adv-x="562" 
d="M281 409q-74 0 -120.5 -49.5t-46.5 -124.5t46.5 -124.5t120.5 -49.5t120.5 49.5t46.5 124.5t-46.5 124.5t-120.5 49.5zM362 470l59 -4v-1q21 15 21 29t-18 19q-14 2 -36 -1l38 32q27 4 47 -4q24 -10 24 -36q0 -43 -71 -67q102 -76 102 -203q0 -106 -70.5 -176.5
t-176.5 -70.5t-176.5 70.5t-70.5 176.5t70.5 177.5t176.5 71.5q40 0 81 -13z" />
    <glyph glyph-name="glyph279" unicode="&#x1af;" horiz-adv-x="685" 
d="M612 711v-429q0 -70 -11 -112q-15 -55 -55 -97q-82 -86 -203 -86q-115 0 -195 77q-45 44 -62 101q-12 41 -12 117v472h84v-449q0 -65 3 -87q13 -95 98 -134q41 -19 84 -19q93 0 148 67q25 31 33 82q4 26 4 91v449l84 -5v-1q26 17 26 36q0 17 -23 23q-16 4 -44 -1l46 40
q33 4 57 -6q31 -13 31 -44q0 -55 -93 -85z" />
    <glyph glyph-name="glyph280" unicode="&#x1b0;" horiz-adv-x="512" 
d="M442 435v-236q0 -212 -186 -212t-186 212v271h80v-262q0 -71 17 -103q24 -44 89 -44t89 44q17 32 17 103v262l80 -5v1q20 15 20 28q0 14 -18 19q-14 2 -36 -1l38 32q27 4 47 -4q24 -10 24 -36q0 -45 -75 -69z" />
    <glyph glyph-name="glyph281" unicode="&#x1ea0;" horiz-adv-x="699" 
d="M511 214h-322l-91 -214h-92l348 790l339 -790h-93zM478 292l-126 302l-129 -302h255zM354 -20q22 0 37.5 -15t15.5 -37t-15.5 -38t-37.5 -16t-37.5 16t-15.5 38t15.5 37t37.5 15z" />
    <glyph glyph-name="glyph282" unicode="&#x1ea1;" horiz-adv-x="577" 
d="M271 409q-69 0 -111 -49.5t-42 -119.5q0 -73 40 -124q43 -55 114 -55q74 0 117 53q40 49 40 125q0 73 -43 121.5t-115 48.5zM505 470v-470h-80v65h-2q-61 -78 -162 -78q-100 0 -164 75q-61 70 -61 172q0 105 60 175q63 74 166 74q99 0 161 -80h2v67h80zM262 -63
q21 0 35.5 -14t14.5 -35t-14.5 -36t-35.5 -15t-35.5 15t-14.5 36t14.5 35t35.5 14z" />
    <glyph glyph-name="glyph283" unicode="&#x1ea2;" horiz-adv-x="699" 
d="M511 214h-322l-91 -214h-92l348 790l339 -790h-93zM478 292l-126 302l-129 -302h255zM396 952q0 32 -36 32q-31 0 -31 -33q0 -7 3 -15l-28 12v17q0 25 21 43t46 18t46.5 -18t21.5 -42q0 -28 -18 -47q-7 -7 -42 -30v-32l-24 -24l-23 21q-2 11 -2 20q0 21 12 33q5 2 33 14
q21 9 21 31z" />
    <glyph glyph-name="glyph284" unicode="&#x1ea3;" horiz-adv-x="577" 
d="M271 409q-69 0 -111 -49.5t-42 -119.5q0 -73 40 -124q43 -55 114 -55q74 0 117 53q40 49 40 125q0 73 -43 121.5t-115 48.5zM505 470v-470h-80v65h-2q-61 -78 -162 -78q-100 0 -164 75q-61 70 -61 172q0 105 60 175q63 74 166 74q99 0 161 -80h2v67h80zM304 670
q0 32 -36 32q-31 0 -31 -33q0 -7 3 -15l-28 12v17q0 25 21 43t46 18t46.5 -18t21.5 -42q0 -28 -18 -47q-7 -7 -42 -30v-32l-24 -24l-23 21q-2 11 -2 20q0 21 12 33q5 2 33 14q21 9 21 31z" />
    <glyph glyph-name="glyph285" unicode="&#x1ea4;" horiz-adv-x="699" 
d="M511 214h-322l-91 -214h-92l348 790l339 -790h-93zM478 292l-126 302l-129 -302h255zM228 850l126 107l127 -107l-46 -37l-81 69l-80 -69zM595 1044l52 -53l-166 -109l-15 39z" />
    <glyph glyph-name="glyph286" unicode="&#x1ea5;" horiz-adv-x="577" 
d="M271 409q-69 0 -111 -49.5t-42 -119.5q0 -73 40 -124q43 -55 114 -55q74 0 117 53q40 49 40 125q0 73 -43 121.5t-115 48.5zM505 470v-470h-80v65h-2q-61 -78 -162 -78q-100 0 -164 75q-61 70 -61 172q0 105 60 175q63 74 166 74q99 0 161 -80h2v67h80zM142 563l120 101
l120 -101l-43 -36l-77 66l-76 -66zM491 747l49 -51l-158 -103l-14 37z" />
    <glyph glyph-name="glyph287" unicode="&#x1ea6;" horiz-adv-x="699" 
d="M511 214h-322l-91 -214h-92l348 790l339 -790h-93zM478 292l-126 302l-129 -302h255zM228 850l126 107l127 -107l-46 -37l-81 69l-80 -69zM244 921l-15 -39l-166 109l52 53z" />
    <glyph glyph-name="glyph288" unicode="&#x1ea7;" horiz-adv-x="577" 
d="M271 409q-69 0 -111 -49.5t-42 -119.5q0 -73 40 -124q43 -55 114 -55q74 0 117 53q40 49 40 125q0 73 -43 121.5t-115 48.5zM505 470v-470h-80v65h-2q-61 -78 -162 -78q-100 0 -164 75q-61 70 -61 172q0 105 60 175q63 74 166 74q99 0 161 -80h2v67h80zM142 564l120 101
l121 -101l-44 -36l-77 66l-76 -66zM158 631l-15 -37l-157 103l49 51z" />
    <glyph glyph-name="glyph289" unicode="&#x1ea8;" horiz-adv-x="699" 
d="M511 214h-322l-91 -214h-92l348 790l339 -790h-93zM478 292l-126 302l-129 -302h255zM228 850l126 107l127 -107l-46 -37l-81 69l-80 -69zM545 991q0 32 -36 32q-31 0 -31 -33q0 -7 3 -15l-28 12v17q0 25 21 43t46 18t46.5 -18t21.5 -42q0 -28 -18 -47q-7 -7 -42 -30v-22
l-24 -24l-23 21q-2 9 -2 16q0 18 12 27q31 12 35 15q19 11 19 30z" />
    <glyph glyph-name="glyph290" unicode="&#x1ea9;" horiz-adv-x="577" 
d="M271 409q-69 0 -111 -49.5t-42 -119.5q0 -73 40 -124q43 -55 114 -55q74 0 117 53q40 49 40 125q0 73 -43 121.5t-115 48.5zM505 470v-470h-80v65h-2q-61 -78 -162 -78q-100 0 -164 75q-61 70 -61 172q0 105 60 175q63 74 166 74q99 0 161 -80h2v67h80zM142 564l120 101
l121 -101l-44 -36l-77 66l-76 -66zM453 714q0 32 -36 32q-31 0 -31 -33q0 -7 3 -15l-28 12v17q0 25 21 43t46 18t46.5 -18t21.5 -42q0 -28 -18 -47q-7 -7 -42 -30v-32l-24 -24l-23 21q-2 11 -2 20q0 21 12 33q5 2 33 14q21 9 21 31z" />
    <glyph glyph-name="glyph291" unicode="&#x1eaa;" horiz-adv-x="699" 
d="M511 214h-322l-91 -214h-92l348 790l339 -790h-93zM478 292l-126 302l-129 -302h255zM228 850l126 107l127 -107l-46 -37l-81 69l-80 -69zM228 980l-22 28q69 63 115 63q19 0 53 -17t42 -17q25 0 66 39l21 -28q-61 -65 -119 -65q-16 0 -49 17t-47 17q-23 0 -60 -37z" />
    <glyph glyph-name="glyph292" unicode="&#x1eab;" horiz-adv-x="577" 
d="M271 409q-69 0 -111 -49.5t-42 -119.5q0 -73 40 -124q43 -55 114 -55q74 0 117 53q40 49 40 125q0 73 -43 121.5t-115 48.5zM505 470v-470h-80v65h-2q-61 -78 -162 -78q-100 0 -164 75q-61 70 -61 172q0 105 60 175q63 74 166 74q99 0 161 -80h2v67h80zM142 563l120 101
l121 -101l-44 -35l-77 65l-76 -65zM142 696l-21 27q68 60 110 60q18 0 50.5 -16.5t39.5 -16.5q22 0 63 37l19 -26q-58 -62 -113 -62q-16 0 -45.5 16t-45.5 16q-22 0 -57 -35z" />
    <glyph glyph-name="glyph293" unicode="&#x1eac;" horiz-adv-x="699" 
d="M511 214h-322l-91 -214h-92l348 790l339 -790h-93zM478 292l-126 302l-129 -302h255zM228 850l126 107l127 -107l-46 -37l-81 69l-80 -69zM354 -20q22 0 37.5 -15t15.5 -37t-15.5 -38t-37.5 -16t-37.5 16t-15.5 38t15.5 37t37.5 15z" />
    <glyph glyph-name="glyph294" unicode="&#x1ead;" horiz-adv-x="577" 
d="M271 409q-69 0 -111 -49.5t-42 -119.5q0 -73 40 -124q43 -55 114 -55q74 0 117 53q40 49 40 125q0 73 -43 121.5t-115 48.5zM505 470v-470h-80v65h-2q-61 -78 -162 -78q-100 0 -164 75q-61 70 -61 172q0 105 60 175q63 74 166 74q99 0 161 -80h2v67h80zM142 563l120 101
l120 -101l-43 -36l-77 66l-76 -66zM262 -63q21 0 35.5 -14t14.5 -35t-14.5 -36t-35.5 -15t-35.5 15t-14.5 36t14.5 35t35.5 14z" />
    <glyph glyph-name="glyph295" unicode="&#x1eae;" horiz-adv-x="699" 
d="M511 214h-322l-91 -214h-92l348 790l339 -790h-93zM478 292l-126 302l-129 -302h255zM216 927h58q19 -48 81 -48t81 48h58q-13 -101 -139 -101q-55 0 -91 23q-42 27 -48 78zM467 1089l52 -53l-166 -109l-15 39z" />
    <glyph glyph-name="glyph296" unicode="&#x1eaf;" horiz-adv-x="577" 
d="M271 409q-69 0 -111 -49.5t-42 -119.5q0 -73 40 -124q43 -55 114 -55q74 0 117 53q40 49 40 125q0 73 -43 121.5t-115 48.5zM505 470v-470h-80v65h-2q-61 -78 -162 -78q-100 0 -164 75q-61 70 -61 172q0 105 60 175q63 74 166 74q99 0 161 -80h2v67h80zM129 638h55
q19 -46 77 -46q59 0 77 46h55q-11 -96 -132 -96q-119 0 -132 96zM368 802l49 -51l-158 -103l-14 37z" />
    <glyph glyph-name="glyph297" unicode="&#x1eb0;" horiz-adv-x="699" 
d="M511 214h-322l-91 -214h-92l348 790l339 -790h-93zM478 292l-126 302l-129 -302h255zM216 927h58q19 -48 81 -48t81 48h58q-13 -101 -139 -101q-55 0 -91 23q-42 27 -48 78zM369 967l-15 -39l-166 109l52 53z" />
    <glyph glyph-name="glyph298" unicode="&#x1eb1;" horiz-adv-x="577" 
d="M271 409q-69 0 -111 -49.5t-42 -119.5q0 -73 40 -124q43 -55 114 -55q74 0 117 53q40 49 40 125q0 73 -43 121.5t-115 48.5zM505 470v-470h-80v65h-2q-61 -78 -162 -78q-100 0 -164 75q-61 70 -61 172q0 105 60 175q63 74 166 74q99 0 161 -80h2v67h80zM130 638h55
q18 -46 77 -46q58 0 77 46h55q-13 -96 -132 -96q-121 0 -132 96zM275 686l-14 -37l-158 103l49 51z" />
    <glyph glyph-name="glyph299" unicode="&#x1eb2;" horiz-adv-x="699" 
d="M511 214h-322l-91 -214h-92l348 790l339 -790h-93zM478 292l-126 302l-129 -302h255zM216 927h58q19 -48 81 -48t81 48h58q-13 -101 -139 -101q-55 0 -91 23q-42 27 -48 78zM396 1036q0 32 -36 32q-31 0 -31 -33q0 -7 3 -15l-28 12v17q0 25 21 43t46 18t46.5 -18
t21.5 -42q0 -28 -18 -47q-7 -7 -42 -30v-22l-24 -24l-23 21q-2 9 -2 16q0 18 12 27q31 12 35 15q19 11 19 30z" />
    <glyph glyph-name="glyph300" unicode="&#x1eb3;" horiz-adv-x="577" 
d="M271 409q-69 0 -111 -49.5t-42 -119.5q0 -73 40 -124q43 -55 114 -55q74 0 117 53q40 49 40 125q0 73 -43 121.5t-115 48.5zM505 470v-470h-80v65h-2q-61 -78 -162 -78q-100 0 -164 75q-61 70 -61 172q0 105 60 175q63 74 166 74q99 0 161 -80h2v67h80zM130 638h55
q18 -46 77 -46t77 46h55q-13 -96 -132 -96t-132 96zM303 763q0 32 -36 32q-31 0 -31 -33q0 -7 3 -15l-28 12v17q0 25 21 43t46 18t46.5 -18t21.5 -42q0 -28 -18 -47q-7 -7 -42 -30v-32l-24 -24l-23 21q-2 11 -2 20q0 21 12 33q5 2 33 14q21 9 21 31z" />
    <glyph glyph-name="glyph301" unicode="&#x1eb4;" horiz-adv-x="699" 
d="M511 214h-322l-91 -214h-92l348 790l339 -790h-93zM478 292l-126 302l-129 -302h255zM216 927h58q19 -48 81 -48t81 48h58q-13 -101 -139 -101q-55 0 -91 23q-42 27 -48 78zM354 960l-22 28q69 63 115 63q19 0 53 -17t42 -17q25 0 66 39l21 -28q-61 -65 -119 -65
q-16 0 -49 17t-47 17q-23 0 -60 -37z" />
    <glyph glyph-name="glyph302" unicode="&#x1eb5;" horiz-adv-x="577" 
d="M271 409q-69 0 -111 -49.5t-42 -119.5q0 -73 40 -124q43 -55 114 -55q74 0 117 53q40 49 40 125q0 73 -43 121.5t-115 48.5zM505 470v-470h-80v65h-2q-61 -78 -162 -78q-100 0 -164 75q-61 70 -61 172q0 105 60 175q63 74 166 74q99 0 161 -80h2v67h80zM131 638h55
q18 -46 77 -46t77 46h55q-6 -49 -46 -74q-34 -22 -86 -22q-120 0 -132 96zM262 669l-21 27q66 60 109 60q18 0 50.5 -16.5t39.5 -16.5q25 0 63 38l20 -27q-58 -62 -113 -62q-16 0 -45.5 16t-45.5 16q-22 0 -57 -35z" />
    <glyph glyph-name="glyph303" unicode="&#x1eb6;" horiz-adv-x="699" 
d="M511 214h-322l-91 -214h-92l348 790l339 -790h-93zM478 292l-126 302l-129 -302h255zM216 927h58q19 -48 81 -48t81 48h58q-13 -101 -139 -101q-55 0 -91 23q-42 27 -48 78zM354 -20q22 0 37.5 -15t15.5 -37t-15.5 -38t-37.5 -16t-37.5 16t-15.5 38t15.5 37t37.5 15z" />
    <glyph glyph-name="glyph304" unicode="&#x1eb7;" horiz-adv-x="577" 
d="M271 409q-69 0 -111 -49.5t-42 -119.5q0 -73 40 -124q43 -55 114 -55q74 0 117 53q40 49 40 125q0 73 -43 121.5t-115 48.5zM505 470v-470h-80v65h-2q-61 -78 -162 -78q-100 0 -164 75q-61 70 -61 172q0 105 60 175q63 74 166 74q99 0 161 -80h2v67h80zM262 -63
q21 0 35.5 -14t14.5 -35t-14.5 -36t-35.5 -15t-35.5 15t-14.5 36t14.5 35t35.5 14zM129 638h55q19 -46 77 -46q59 0 77 46h55q-11 -96 -132 -96q-119 0 -132 96z" />
    <glyph glyph-name="glyph305" unicode="&#x1eb8;" horiz-adv-x="534" 
d="M76 0v754h391v-78h-307v-224h298v-78h-298v-296h307v-78h-391zM270 -45q22 0 37.5 -15t15.5 -37t-15.5 -38t-37.5 -16t-37.5 16t-15.5 38t15.5 37t37.5 15z" />
    <glyph glyph-name="glyph306" unicode="&#x1eb9;" horiz-adv-x="519" 
d="M485 218h-369q1 -68 43.5 -112.5t110.5 -44.5q89 0 143 97l68 -39q-71 -132 -217 -132q-104 0 -168 70q-62 67 -62 172q0 109 59 179q62 75 169 75q109 0 171 -80q58 -74 52 -185zM120 286h281q-8 52 -47 87.5t-91 35.5q-53 0 -94.5 -35.5t-48.5 -87.5zM262 -63
q21 0 35.5 -14t14.5 -35t-14.5 -36t-35.5 -15t-35.5 15t-14.5 36t14.5 35t35.5 14z" />
    <glyph glyph-name="glyph307" unicode="&#x1eba;" horiz-adv-x="534" 
d="M76 0v754h391v-78h-307v-224h298v-78h-298v-296h307v-78h-391zM311 946q0 32 -36 32q-31 0 -31 -33q0 -7 3 -15l-28 12v17q0 25 21 43t46 18t46.5 -18t21.5 -42q0 -28 -18 -47q-7 -7 -42 -30q0 -21 1 -36l-24 -24l-23 21q-8 37 8 55q3 3 33 16q22 9 22 31z" />
    <glyph glyph-name="glyph308" unicode="&#x1ebb;" horiz-adv-x="519" 
d="M485 218h-369q1 -68 43.5 -112.5t110.5 -44.5q89 0 143 97l68 -39q-71 -132 -217 -132q-104 0 -168 70q-62 67 -62 172q0 109 59 179q62 75 169 75q109 0 171 -80q58 -74 52 -185zM120 286h281q-8 52 -47 87.5t-91 35.5q-53 0 -94.5 -35.5t-48.5 -87.5zM304 670
q0 32 -36 32q-31 0 -31 -33q0 -7 3 -15l-28 12v17q0 25 21 43t46 18t46.5 -18t21.5 -42q0 -28 -18 -47q-7 -7 -42 -30v-32l-24 -24l-23 21q-2 11 -2 20q0 21 12 33q5 2 33 14q21 9 21 31z" />
    <glyph glyph-name="glyph309" unicode="&#x1ebc;" horiz-adv-x="534" 
d="M76 0v754h391v-78h-307v-224h298v-78h-298v-296h307v-78h-391zM144 839l-22 28q69 63 115 63q19 0 53 -17t42 -17q25 0 66 39l21 -28q-61 -65 -119 -65q-16 0 -49 17t-47 17q-23 0 -60 -37z" />
    <glyph glyph-name="glyph310" unicode="&#x1ebd;" horiz-adv-x="519" 
d="M485 218h-369q1 -68 43.5 -112.5t110.5 -44.5q89 0 143 97l68 -39q-71 -132 -217 -132q-104 0 -168 70q-62 67 -62 172q0 109 59 179q62 75 169 75q109 0 171 -80q58 -74 52 -185zM120 286h281q-8 52 -47 87.5t-91 35.5q-53 0 -94.5 -35.5t-48.5 -87.5zM142 566l-21 27
q68 60 110 60q18 0 50.5 -16.5t39.5 -16.5q22 0 63 37l19 -26q-58 -62 -113 -62q-16 0 -45.5 16t-45.5 16q-22 0 -57 -35z" />
    <glyph glyph-name="glyph311" unicode="&#x1ebe;" horiz-adv-x="534" 
d="M76 0v754h391v-78h-307v-224h298v-78h-298v-296h307v-78h-391zM144 840l126 107l127 -107l-46 -37l-81 69l-80 -69zM511 1034l52 -53l-166 -109l-15 39z" />
    <glyph glyph-name="glyph312" unicode="&#x1ebf;" horiz-adv-x="519" 
d="M485 218h-369q1 -68 43.5 -112.5t110.5 -44.5q89 0 143 97l68 -39q-71 -132 -217 -132q-104 0 -168 70q-62 67 -62 172q0 109 59 179q62 75 169 75q109 0 171 -80q58 -74 52 -185zM120 286h281q-8 52 -47 87.5t-91 35.5q-53 0 -94.5 -35.5t-48.5 -87.5zM142 563l120 101
l120 -101l-43 -36l-77 66l-76 -66zM491 747l49 -51l-158 -103l-14 37z" />
    <glyph glyph-name="glyph313" unicode="&#x1ec0;" horiz-adv-x="534" 
d="M76 0v754h391v-78h-307v-224h298v-78h-298v-296h307v-78h-391zM144 840l126 107l127 -107l-46 -37l-81 69l-80 -69zM160 911l-15 -39l-166 109l52 53z" />
    <glyph glyph-name="glyph314" unicode="&#x1ec1;" horiz-adv-x="519" 
d="M485 218h-369q1 -68 43.5 -112.5t110.5 -44.5q89 0 143 97l68 -39q-71 -132 -217 -132q-104 0 -168 70q-62 67 -62 172q0 109 59 179q62 75 169 75q109 0 171 -80q58 -74 52 -185zM120 286h281q-8 52 -47 87.5t-91 35.5q-53 0 -94.5 -35.5t-48.5 -87.5zM142 564l120 101
l121 -101l-44 -36l-77 66l-76 -66zM158 631l-15 -37l-157 103l49 51z" />
    <glyph glyph-name="glyph315" unicode="&#x1ec2;" horiz-adv-x="534" 
d="M76 0v754h391v-78h-307v-224h298v-78h-298v-296h307v-78h-391zM144 841l126 107l127 -107l-46 -37l-81 69l-80 -69zM461 982q0 32 -36 32q-31 0 -31 -33q0 -7 3 -15l-28 12v17q0 25 21 43t46 18t46.5 -18t21.5 -42q0 -28 -18 -47q-7 -7 -42 -30v-22l-24 -24l-23 21
q-2 9 -2 16q0 18 12 27q31 12 35 15q19 11 19 30z" />
    <glyph glyph-name="glyph316" unicode="&#x1ec3;" horiz-adv-x="519" 
d="M485 218h-369q1 -68 43.5 -112.5t110.5 -44.5q89 0 143 97l68 -39q-71 -132 -217 -132q-104 0 -168 70q-62 67 -62 172q0 109 59 179q62 75 169 75q109 0 171 -80q58 -74 52 -185zM120 286h281q-8 52 -47 87.5t-91 35.5q-53 0 -94.5 -35.5t-48.5 -87.5zM142 564l120 101
l121 -101l-44 -36l-77 66l-76 -66zM453 714q0 32 -36 32q-31 0 -31 -33q0 -7 3 -15l-28 12v17q0 25 21 43t46 18t46.5 -18t21.5 -42q0 -28 -18 -47q-7 -7 -42 -30v-32l-24 -24l-23 21q-2 11 -2 20q0 21 12 33q5 2 33 14q21 9 21 31z" />
    <glyph glyph-name="glyph317" unicode="&#x1ec4;" horiz-adv-x="534" 
d="M76 0v754h391v-78h-307v-224h298v-78h-298v-296h307v-78h-391zM144 840l126 107l127 -107l-46 -37l-81 69l-80 -69zM144 970l-22 28q69 63 115 63q19 0 53 -17t42 -17q25 0 66 39l21 -28q-61 -65 -119 -65q-16 0 -49 17t-47 17q-23 0 -60 -37z" />
    <glyph glyph-name="glyph318" unicode="&#x1ec5;" horiz-adv-x="519" 
d="M485 218h-369q1 -68 43.5 -112.5t110.5 -44.5q89 0 143 97l68 -39q-71 -132 -217 -132q-104 0 -168 70q-62 67 -62 172q0 109 59 179q62 75 169 75q109 0 171 -80q58 -74 52 -185zM120 286h281q-8 52 -47 87.5t-91 35.5q-53 0 -94.5 -35.5t-48.5 -87.5zM142 563l120 101
l121 -101l-44 -35l-77 65l-76 -65zM142 696l-21 27q68 60 110 60q18 0 50.5 -16.5t39.5 -16.5q22 0 63 37l19 -26q-58 -62 -113 -62q-16 0 -45.5 16t-45.5 16q-22 0 -57 -35z" />
    <glyph glyph-name="glyph319" unicode="&#x1ec6;" horiz-adv-x="534" 
d="M76 0v754h391v-78h-307v-224h298v-78h-298v-296h307v-78h-391zM144 840l126 107l127 -107l-46 -37l-81 69l-80 -69zM270 -45q22 0 37.5 -15t15.5 -37t-15.5 -38t-37.5 -16t-37.5 16t-15.5 38t15.5 37t37.5 15z" />
    <glyph glyph-name="glyph320" unicode="&#x1ec7;" horiz-adv-x="519" 
d="M485 218h-369q1 -68 43.5 -112.5t110.5 -44.5q89 0 143 97l68 -39q-71 -132 -217 -132q-104 0 -168 70q-62 67 -62 172q0 109 59 179q62 75 169 75q109 0 171 -80q58 -74 52 -185zM120 286h281q-8 52 -47 87.5t-91 35.5q-53 0 -94.5 -35.5t-48.5 -87.5zM142 563l120 101
l120 -101l-43 -36l-77 66l-76 -66zM262 -63q21 0 35.5 -14t14.5 -35t-14.5 -36t-35.5 -15t-35.5 15t-14.5 36t14.5 35t35.5 14z" />
    <glyph glyph-name="glyph321" unicode="&#x1ec8;" horiz-adv-x="239" 
d="M162 754v-754h-84v754h84zM160 934q0 32 -36 32q-31 0 -31 -33q0 -7 3 -15l-28 12v17q0 25 21 43t46 18t46.5 -18t21.5 -42q0 -28 -18 -47q-7 -7 -42 -30q0 -21 1 -36l-24 -24l-23 21q-8 37 8 55q3 3 33 16q22 9 22 31z" />
    <glyph glyph-name="glyph322" unicode="&#x1ec9;" horiz-adv-x="262" 
d="M171 470v-470h-80v470h80zM173 647q0 32 -36 32q-31 0 -31 -33q0 -7 3 -15l-28 12v17q0 25 21 43t46 18t46.5 -18t21.5 -42q0 -28 -18 -47q-7 -7 -42 -30v-32l-24 -24l-23 21q-2 11 -2 20q0 21 12 33q5 2 33 14q21 9 21 31z" />
    <glyph glyph-name="glyph323" unicode="&#x1eca;" horiz-adv-x="239" 
d="M162 754v-754h-84v754h84zM120 -45q22 0 37.5 -15t15.5 -37t-15.5 -38t-37.5 -16t-37.5 16t-15.5 38t15.5 37t37.5 15z" />
    <glyph glyph-name="glyph324" unicode="&#x1ecb;" horiz-adv-x="262" 
d="M171 470v-470h-80v470h80zM131 630q21 0 36 -15t15 -36q0 -22 -14.5 -36.5t-36.5 -14.5t-36.5 14.5t-14.5 36.5q0 21 15 36t36 15zM131 -48q21 0 35.5 -14t14.5 -35t-14.5 -36t-35.5 -15t-35.5 15t-14.5 36t14.5 35t35.5 14z" />
    <glyph glyph-name="glyph325" unicode="&#x1ecc;" horiz-adv-x="862" 
d="M431 767q165 0 279 -113t114 -278t-114 -277t-279 -112t-279 112t-114 277t114 278t279 113zM431 689q-132 0 -220.5 -90t-88.5 -222q0 -131 89 -221.5t220 -90.5t220 90.5t89 221.5q0 132 -88.5 222t-220.5 90zM431 -60q22 0 37.5 -15t15.5 -37t-15.5 -38t-37.5 -16
t-37.5 16t-15.5 38t15.5 37t37.5 15z" />
    <glyph glyph-name="glyph326" unicode="&#x1ecd;" horiz-adv-x="562" 
d="M281 -13q-106 0 -176.5 70.5t-70.5 176.5t70.5 177.5t176.5 71.5t176.5 -71.5t70.5 -177.5t-70.5 -176.5t-176.5 -70.5zM281 409q-74 0 -120.5 -49.5t-46.5 -124.5t46.5 -124.5t120.5 -49.5t120.5 49.5t46.5 124.5t-46.5 124.5t-120.5 49.5zM282 -63q21 0 35.5 -14
t14.5 -35t-14.5 -36t-35.5 -15t-35.5 15t-14.5 36t14.5 35t35.5 14z" />
    <glyph glyph-name="glyph327" unicode="&#x1ece;" horiz-adv-x="862" 
d="M431 767q165 0 279 -113t114 -278t-114 -277t-279 -112t-279 112t-114 277t114 278t279 113zM431 689q-132 0 -220.5 -90t-88.5 -222q0 -131 89 -221.5t220 -90.5t220 90.5t89 221.5q0 132 -88.5 222t-220.5 90zM472 957q0 32 -36 32q-31 0 -31 -33q0 -7 3 -15l-28 12v17
q0 25 21 43t46 18t46.5 -18t21.5 -42q0 -28 -18 -47q-7 -7 -42 -30q0 -21 1 -36l-24 -24l-23 21q-8 37 8 55q3 3 33 16q22 9 22 31z" />
    <glyph glyph-name="glyph328" unicode="&#x1ecf;" horiz-adv-x="562" 
d="M281 -13q-106 0 -176.5 70.5t-70.5 176.5t70.5 177.5t176.5 71.5t176.5 -71.5t70.5 -177.5t-70.5 -176.5t-176.5 -70.5zM281 409q-74 0 -120.5 -49.5t-46.5 -124.5t46.5 -124.5t120.5 -49.5t120.5 49.5t46.5 124.5t-46.5 124.5t-120.5 49.5zM323 670q0 32 -36 32
q-31 0 -31 -33q0 -7 3 -15l-28 12v17q0 25 21 43t46 18t46.5 -18t21.5 -42q0 -28 -18 -47q-7 -7 -42 -30v-32l-24 -24l-23 21q-2 11 -2 20q0 21 12 33q5 2 33 14q21 9 21 31z" />
    <glyph glyph-name="glyph329" unicode="&#x1ed0;" horiz-adv-x="862" 
d="M431 767q165 0 279 -113t114 -278t-114 -277t-279 -112t-279 112t-114 277t114 278t279 113zM431 689q-132 0 -220.5 -90t-88.5 -222q0 -131 89 -221.5t220 -90.5t220 90.5t89 221.5q0 132 -88.5 222t-220.5 90zM305 840l126 107l127 -107l-46 -37l-81 69l-80 -69z
M672 1034l52 -53l-166 -109l-15 39z" />
    <glyph glyph-name="glyph330" unicode="&#x1ed1;" horiz-adv-x="562" 
d="M281 -13q-106 0 -176.5 70.5t-70.5 176.5t70.5 177.5t176.5 71.5t176.5 -71.5t70.5 -177.5t-70.5 -176.5t-176.5 -70.5zM281 409q-74 0 -120.5 -49.5t-46.5 -124.5t46.5 -124.5t120.5 -49.5t120.5 49.5t46.5 124.5t-46.5 124.5t-120.5 49.5zM162 563l120 101l120 -101
l-43 -36l-77 66l-76 -66zM511 747l49 -51l-158 -103l-14 37z" />
    <glyph glyph-name="glyph331" unicode="&#x1ed2;" horiz-adv-x="862" 
d="M431 767q165 0 279 -113t114 -278t-114 -277t-279 -112t-279 112t-114 277t114 278t279 113zM431 689q-132 0 -220.5 -90t-88.5 -222q0 -131 89 -221.5t220 -90.5t220 90.5t89 221.5q0 132 -88.5 222t-220.5 90zM305 841l126 107l127 -107l-46 -37l-81 69l-80 -69z
M321 912l-15 -39l-166 109l52 53z" />
    <glyph glyph-name="glyph332" unicode="&#x1ed3;" horiz-adv-x="562" 
d="M281 -13q-106 0 -176.5 70.5t-70.5 176.5t70.5 177.5t176.5 71.5t176.5 -71.5t70.5 -177.5t-70.5 -176.5t-176.5 -70.5zM281 409q-74 0 -120.5 -49.5t-46.5 -124.5t46.5 -124.5t120.5 -49.5t120.5 49.5t46.5 124.5t-46.5 124.5t-120.5 49.5zM161 564l120 101l121 -101
l-44 -36l-77 66l-76 -66zM177 631l-15 -37l-157 103l49 51z" />
    <glyph glyph-name="glyph333" unicode="&#x1ed4;" horiz-adv-x="862" 
d="M431 767q165 0 279 -113t114 -278t-114 -277t-279 -112t-279 112t-114 277t114 278t279 113zM431 689q-132 0 -220.5 -90t-88.5 -222q0 -131 89 -221.5t220 -90.5t220 90.5t89 221.5q0 132 -88.5 222t-220.5 90zM305 840l126 107l127 -107l-46 -37l-81 69l-80 -69z
M622 981q0 32 -36 32q-31 0 -31 -33q0 -7 3 -15l-28 12v17q0 25 21 43t46 18t46.5 -18t21.5 -42q0 -28 -18 -47q-7 -7 -42 -30v-22l-24 -24l-23 21q-2 9 -2 16q0 18 12 27q31 12 35 15q19 11 19 30z" />
    <glyph glyph-name="glyph334" unicode="&#x1ed5;" horiz-adv-x="562" 
d="M281 -13q-106 0 -176.5 70.5t-70.5 176.5t70.5 177.5t176.5 71.5t176.5 -71.5t70.5 -177.5t-70.5 -176.5t-176.5 -70.5zM281 409q-74 0 -120.5 -49.5t-46.5 -124.5t46.5 -124.5t120.5 -49.5t120.5 49.5t46.5 124.5t-46.5 124.5t-120.5 49.5zM162 564l120 101l121 -101
l-44 -36l-77 66l-76 -66zM473 714q0 32 -36 32q-31 0 -31 -33q0 -7 3 -15l-28 12v17q0 25 21 43t46 18t46.5 -18t21.5 -42q0 -28 -18 -47q-7 -7 -42 -30v-32l-24 -24l-23 21q-2 11 -2 20q0 21 12 33q5 2 33 14q21 9 21 31z" />
    <glyph glyph-name="glyph335" unicode="&#x1ed6;" horiz-adv-x="862" 
d="M431 767q165 0 279 -113t114 -278t-114 -277t-279 -112t-279 112t-114 277t114 278t279 113zM431 689q-132 0 -220.5 -90t-88.5 -222q0 -131 89 -221.5t220 -90.5t220 90.5t89 221.5q0 132 -88.5 222t-220.5 90zM305 840l126 107l127 -107l-46 -37l-81 69l-80 -69z
M305 970l-22 28q69 63 115 63q19 0 53 -17t42 -17q25 0 66 39l21 -28q-61 -65 -119 -65q-16 0 -49 17t-47 17q-23 0 -60 -37z" />
    <glyph glyph-name="glyph336" unicode="&#x1ed7;" horiz-adv-x="562" 
d="M281 -13q-106 0 -176.5 70.5t-70.5 176.5t70.5 177.5t176.5 71.5t176.5 -71.5t70.5 -177.5t-70.5 -176.5t-176.5 -70.5zM281 409q-74 0 -120.5 -49.5t-46.5 -124.5t46.5 -124.5t120.5 -49.5t120.5 49.5t46.5 124.5t-46.5 124.5t-120.5 49.5zM162 563l120 101l121 -101
l-44 -35l-77 65l-76 -65zM162 696l-21 27q68 60 110 60q18 0 50.5 -16.5t39.5 -16.5q22 0 63 37l19 -26q-58 -62 -113 -62q-16 0 -45.5 16t-45.5 16q-22 0 -57 -35z" />
    <glyph glyph-name="glyph337" unicode="&#x1ed8;" horiz-adv-x="862" 
d="M431 767q165 0 279 -113t114 -278t-114 -277t-279 -112t-279 112t-114 277t114 278t279 113zM431 689q-132 0 -220.5 -90t-88.5 -222q0 -131 89 -221.5t220 -90.5t220 90.5t89 221.5q0 132 -88.5 222t-220.5 90zM305 840l126 107l127 -107l-46 -37l-81 69l-80 -69z
M431 -60q22 0 37.5 -15t15.5 -37t-15.5 -38t-37.5 -16t-37.5 16t-15.5 38t15.5 37t37.5 15z" />
    <glyph glyph-name="glyph338" unicode="&#x1ed9;" horiz-adv-x="562" 
d="M281 -13q-106 0 -176.5 70.5t-70.5 176.5t70.5 177.5t176.5 71.5t176.5 -71.5t70.5 -177.5t-70.5 -176.5t-176.5 -70.5zM281 409q-74 0 -120.5 -49.5t-46.5 -124.5t46.5 -124.5t120.5 -49.5t120.5 49.5t46.5 124.5t-46.5 124.5t-120.5 49.5zM162 563l120 101l120 -101
l-43 -36l-77 66l-76 -66zM282 -63q21 0 35.5 -14t14.5 -35t-14.5 -36t-35.5 -15t-35.5 15t-14.5 36t14.5 35t35.5 14z" />
    <glyph glyph-name="glyph339" unicode="&#x1eda;" horiz-adv-x="862" 
d="M431 689q-132 0 -220.5 -90t-88.5 -222q0 -131 89 -221.5t220 -90.5t220 90.5t89 221.5q0 132 -88.5 222t-220.5 90zM524 756l172 -5l-1 -1q36 17 36 37q0 17 -24 24q-18 6 -37 4l57 32q29 0 50 -13q25 -15 25 -42q0 -37 -42 -60q-31 -17 -75 -22l-43 -5
q85 -54 133.5 -141.5t48.5 -187.5q0 -165 -114 -277t-279 -112t-279 112t-114 277t114 278t279 113q46 0 93 -11zM544 1011l52 -53l-166 -109l-15 39z" />
    <glyph glyph-name="glyph340" unicode="&#x1edb;" horiz-adv-x="562" 
d="M281 409q-74 0 -120.5 -49.5t-46.5 -124.5t46.5 -124.5t120.5 -49.5t120.5 49.5t46.5 124.5t-46.5 124.5t-120.5 49.5zM362 470l59 -4v-1q21 15 21 29t-18 19q-14 2 -36 -1l38 32q27 4 47 -4q24 -10 24 -36q0 -43 -71 -67q102 -76 102 -203q0 -106 -70.5 -176.5
t-176.5 -70.5t-176.5 70.5t-70.5 176.5t70.5 177.5t176.5 71.5q40 0 81 -13zM390 720l49 -51l-158 -103l-14 37z" />
    <glyph glyph-name="glyph341" unicode="&#x1edc;" horiz-adv-x="862" 
d="M431 689q-132 0 -220.5 -90t-88.5 -222q0 -131 89 -221.5t220 -90.5t220 90.5t89 221.5q0 132 -88.5 222t-220.5 90zM524 756l172 -5l-1 -1q36 17 36 37q0 17 -24 24q-18 6 -37 4l57 32q29 0 50 -13q25 -15 25 -42q0 -37 -42 -60q-31 -17 -75 -22l-43 -5
q85 -54 133.5 -141.5t48.5 -187.5q0 -165 -114 -277t-279 -112t-279 112t-114 277t114 278t279 113q46 0 93 -11zM447 887l-15 -39l-166 109l52 53z" />
    <glyph glyph-name="glyph342" unicode="&#x1edd;" horiz-adv-x="562" 
d="M281 409q-74 0 -120.5 -49.5t-46.5 -124.5t46.5 -124.5t120.5 -49.5t120.5 49.5t46.5 124.5t-46.5 124.5t-120.5 49.5zM362 470l59 -4v-1q21 15 21 29t-18 19q-14 2 -36 -1l38 32q27 4 47 -4q24 -10 24 -36q0 -43 -71 -67q102 -76 102 -203q0 -106 -70.5 -176.5
t-176.5 -70.5t-176.5 70.5t-70.5 176.5t70.5 177.5t176.5 71.5q40 0 81 -13zM298 603l-15 -37l-157 103l49 51z" />
    <glyph glyph-name="glyph343" unicode="&#x1ede;" horiz-adv-x="862" 
d="M431 689q-132 0 -220.5 -90t-88.5 -222q0 -131 89 -221.5t220 -90.5t220 90.5t89 221.5q0 132 -88.5 222t-220.5 90zM524 756l172 -5l-1 -1q36 17 36 37q0 17 -24 24q-18 6 -37 4l57 32q29 0 50 -13q25 -15 25 -42q0 -37 -42 -60q-31 -17 -75 -22l-43 -5
q85 -54 133.5 -141.5t48.5 -187.5q0 -165 -114 -277t-279 -112t-279 112t-114 277t114 278t279 113q46 0 93 -11zM472 957q0 32 -36 32q-31 0 -31 -33q0 -7 3 -15l-28 12v17q0 25 21 43t46 18t46.5 -18t21.5 -42q0 -28 -18 -47q-7 -7 -42 -30q0 -21 1 -36l-24 -24l-23 21
q-8 37 8 55q3 3 33 16q22 9 22 31z" />
    <glyph glyph-name="glyph344" unicode="&#x1edf;" horiz-adv-x="562" 
d="M281 409q-74 0 -120.5 -49.5t-46.5 -124.5t46.5 -124.5t120.5 -49.5t120.5 49.5t46.5 124.5t-46.5 124.5t-120.5 49.5zM362 470l59 -4v-1q21 15 21 29t-18 19q-14 2 -36 -1l38 32q27 4 47 -4q24 -10 24 -36q0 -43 -71 -67q102 -76 102 -203q0 -106 -70.5 -176.5
t-176.5 -70.5t-176.5 70.5t-70.5 176.5t70.5 177.5t176.5 71.5q40 0 81 -13zM323 670q0 32 -36 32q-31 0 -31 -33q0 -7 3 -15l-28 12v17q0 25 21 43t46 18t46.5 -18t21.5 -42q0 -28 -18 -47q-7 -7 -42 -30v-32l-24 -24l-23 21q-2 11 -2 20q0 21 12 33q5 2 33 14q21 9 21 31z
" />
    <glyph glyph-name="glyph345" unicode="&#x1ee0;" horiz-adv-x="862" 
d="M431 689q-132 0 -220.5 -90t-88.5 -222q0 -131 89 -221.5t220 -90.5t220 90.5t89 221.5q0 132 -88.5 222t-220.5 90zM524 756l172 -5l-1 -1q36 17 36 37q0 17 -24 24q-18 6 -37 4l57 32q29 0 50 -13q25 -15 25 -42q0 -37 -42 -60q-31 -17 -75 -22l-43 -5
q85 -54 133.5 -141.5t48.5 -187.5q0 -165 -114 -277t-279 -112t-279 112t-114 277t114 278t279 113q46 0 93 -11zM305 848l-22 28q69 63 115 63q19 0 53 -17t42 -17q25 0 66 39l21 -28q-61 -65 -119 -65q-16 0 -49 17t-47 17q-23 0 -60 -37z" />
    <glyph glyph-name="glyph346" unicode="&#x1ee1;" horiz-adv-x="562" 
d="M281 409q-74 0 -120.5 -49.5t-46.5 -124.5t46.5 -124.5t120.5 -49.5t120.5 49.5t46.5 124.5t-46.5 124.5t-120.5 49.5zM362 470l59 -4v-1q21 15 21 29t-18 19q-14 2 -36 -1l38 32q27 4 47 -4q24 -10 24 -36q0 -43 -71 -67q102 -76 102 -203q0 -106 -70.5 -176.5
t-176.5 -70.5t-176.5 70.5t-70.5 176.5t70.5 177.5t176.5 71.5q40 0 81 -13zM162 566l-21 27q68 60 110 60q18 0 50.5 -16.5t39.5 -16.5q22 0 63 37l19 -26q-58 -62 -113 -62q-16 0 -45.5 16t-45.5 16q-22 0 -57 -35z" />
    <glyph glyph-name="glyph347" unicode="&#x1ee2;" horiz-adv-x="862" 
d="M431 689q-132 0 -220.5 -90t-88.5 -222q0 -131 89 -221.5t220 -90.5t220 90.5t89 221.5q0 132 -88.5 222t-220.5 90zM524 756l172 -5l-1 -1q36 17 36 37q0 17 -24 24q-18 6 -37 4l57 32q29 0 50 -13q25 -15 25 -42q0 -37 -42 -60q-31 -17 -75 -22l-43 -5
q85 -54 133.5 -141.5t48.5 -187.5q0 -165 -114 -277t-279 -112t-279 112t-114 277t114 278t279 113q46 0 93 -11zM431 -60q22 0 37.5 -15t15.5 -37t-15.5 -38t-37.5 -16t-37.5 16t-15.5 38t15.5 37t37.5 15z" />
    <glyph glyph-name="glyph348" unicode="&#x1ee3;" horiz-adv-x="562" 
d="M281 409q-74 0 -120.5 -49.5t-46.5 -124.5t46.5 -124.5t120.5 -49.5t120.5 49.5t46.5 124.5t-46.5 124.5t-120.5 49.5zM362 470l59 -4v-1q21 15 21 29t-18 19q-14 2 -36 -1l38 32q27 4 47 -4q24 -10 24 -36q0 -43 -71 -67q102 -76 102 -203q0 -106 -70.5 -176.5
t-176.5 -70.5t-176.5 70.5t-70.5 176.5t70.5 177.5t176.5 71.5q40 0 81 -13zM282 -63q21 0 35.5 -14t14.5 -35t-14.5 -36t-35.5 -15t-35.5 15t-14.5 36t14.5 35t35.5 14z" />
    <glyph glyph-name="glyph349" unicode="&#x1ee4;" horiz-adv-x="685" 
d="M158 754v-449q0 -65 3 -87q13 -95 98 -134q41 -19 84 -19q93 0 148 67q25 31 33 82q4 26 4 91v449h84v-472q0 -70 -11 -112q-15 -55 -55 -97q-82 -86 -203 -86q-115 0 -195 77q-45 44 -62 101q-12 41 -12 117v472h84zM342 -60q22 0 37.5 -15t15.5 -37t-15.5 -38
t-37.5 -16t-37.5 16t-15.5 38t15.5 37t37.5 15z" />
    <glyph glyph-name="glyph350" unicode="&#x1ee5;" horiz-adv-x="512" 
d="M150 470v-262q0 -71 17 -103q24 -44 89 -44t89 44q17 32 17 103v262h80v-271q0 -212 -186 -212t-186 212v271h80zM257 -63q21 0 35.5 -14t14.5 -35t-14.5 -36t-35.5 -15t-35.5 15t-14.5 36t14.5 35t35.5 14z" />
    <glyph glyph-name="glyph351" unicode="&#x1ee6;" horiz-adv-x="685" 
d="M158 754v-449q0 -65 3 -87q13 -95 98 -134q41 -19 84 -19q93 0 148 67q25 31 33 82q4 26 4 91v449h84v-472q0 -70 -11 -112q-15 -55 -55 -97q-82 -86 -203 -86q-115 0 -195 77q-45 44 -62 101q-12 41 -12 117v472h84zM383 912q0 32 -36 32q-31 0 -31 -33q0 -7 3 -15
l-28 12v17q0 25 21 43t46 18t46.5 -18t21.5 -42q0 -28 -18 -47q-7 -7 -42 -30q0 -21 1 -36l-24 -24l-23 21q-8 37 8 55q3 3 33 16q22 9 22 31z" />
    <glyph glyph-name="glyph352" unicode="&#x1ee7;" horiz-adv-x="512" 
d="M150 470v-262q0 -71 17 -103q24 -44 89 -44t89 44q17 32 17 103v262h80v-271q0 -212 -186 -212t-186 212v271h80zM299 633q0 32 -36 32q-31 0 -31 -33q0 -7 3 -15l-28 12v17q0 25 21 43t46 18t46.5 -18t21.5 -42q0 -28 -18 -47q-7 -7 -42 -30v-32l-24 -24l-23 21
q-2 11 -2 20q0 21 12 33q5 2 33 14q21 9 21 31z" />
    <glyph glyph-name="glyph353" unicode="&#x1ee8;" horiz-adv-x="685" 
d="M612 711v-429q0 -70 -11 -112q-15 -55 -55 -97q-82 -86 -203 -86q-115 0 -195 77q-45 44 -62 101q-12 41 -12 117v472h84v-449q0 -65 3 -87q13 -95 98 -134q41 -19 84 -19q93 0 148 67q25 31 33 82q4 26 4 91v449l84 -5v-1q26 17 26 36q0 17 -23 23q-16 4 -44 -1l46 40
q33 4 57 -6q31 -13 31 -44q0 -55 -93 -85zM455 965l52 -53l-166 -109l-15 39z" />
    <glyph glyph-name="glyph354" unicode="&#x1ee9;" horiz-adv-x="512" 
d="M442 435v-236q0 -212 -186 -212t-186 212v271h80v-262q0 -71 17 -103q24 -44 89 -44t89 44q17 32 17 103v262l80 -5v1q20 15 20 28q0 14 -18 19q-14 2 -36 -1l38 32q27 4 47 -4q24 -10 24 -36q0 -45 -75 -69zM366 683l49 -51l-158 -103l-14 37z" />
    <glyph glyph-name="glyph355" unicode="&#x1eea;" horiz-adv-x="685" 
d="M612 711v-429q0 -70 -11 -112q-15 -55 -55 -97q-82 -86 -203 -86q-115 0 -195 77q-45 44 -62 101q-12 41 -12 117v472h84v-449q0 -65 3 -87q13 -95 98 -134q41 -19 84 -19q93 0 148 67q25 31 33 82q4 26 4 91v449l84 -5v-1q26 17 26 36q0 17 -23 23q-16 4 -44 -1l46 40
q33 4 57 -6q31 -13 31 -44q0 -55 -93 -85zM358 842l-15 -39l-166 109l52 53z" />
    <glyph glyph-name="glyph356" unicode="&#x1eeb;" horiz-adv-x="512" 
d="M442 435v-236q0 -212 -186 -212t-186 212v271h80v-262q0 -71 17 -103q24 -44 89 -44t89 44q17 32 17 103v262l80 -5v1q20 15 20 28q0 14 -18 19q-14 2 -36 -1l38 32q27 4 47 -4q24 -10 24 -36q0 -45 -75 -69zM272 565l-15 -37l-157 103l49 51z" />
    <glyph glyph-name="glyph357" unicode="&#x1eec;" horiz-adv-x="685" 
d="M612 711v-429q0 -70 -11 -112q-15 -55 -55 -97q-82 -86 -203 -86q-115 0 -195 77q-45 44 -62 101q-12 41 -12 117v472h84v-449q0 -65 3 -87q13 -95 98 -134q41 -19 84 -19q93 0 148 67q25 31 33 82q4 26 4 91v449l84 -5v-1q26 17 26 36q0 17 -23 23q-16 4 -44 -1l46 40
q33 4 57 -6q31 -13 31 -44q0 -55 -93 -85zM383 912q0 32 -36 32q-31 0 -31 -33q0 -7 3 -15l-28 12v17q0 25 21 43t46 18t46.5 -18t21.5 -42q0 -28 -18 -47q-7 -7 -42 -30q0 -21 1 -36l-24 -24l-23 21q-8 37 8 55q3 3 33 16q22 9 22 31z" />
    <glyph glyph-name="glyph358" unicode="&#x1eed;" horiz-adv-x="512" 
d="M442 435v-236q0 -212 -186 -212t-186 212v271h80v-262q0 -71 17 -103q24 -44 89 -44t89 44q17 32 17 103v262l80 -5v1q20 15 20 28q0 14 -18 19q-14 2 -36 -1l38 32q27 4 47 -4q24 -10 24 -36q0 -45 -75 -69zM299 633q0 32 -36 32q-31 0 -31 -33q0 -7 3 -15l-28 12v17
q0 25 21 43t46 18t46.5 -18t21.5 -42q0 -28 -18 -47q-7 -7 -42 -30v-32l-24 -24l-23 21q-2 11 -2 20q0 21 12 33q5 2 33 14q21 9 21 31z" />
    <glyph glyph-name="glyph359" unicode="&#x1eee;" horiz-adv-x="685" 
d="M612 711v-429q0 -70 -11 -112q-15 -55 -55 -97q-82 -86 -203 -86q-115 0 -195 77q-45 44 -62 101q-12 41 -12 117v472h84v-449q0 -65 3 -87q13 -95 98 -134q41 -19 84 -19q93 0 148 67q25 31 33 82q4 26 4 91v449l84 -5v-1q26 17 26 36q0 17 -23 23q-16 4 -44 -1l46 40
q33 4 57 -6q31 -13 31 -44q0 -55 -93 -85zM216 813l-22 28q69 63 115 63q19 0 53 -17t42 -17q25 0 66 39l21 -28q-61 -65 -119 -65q-16 0 -49 17t-47 17q-23 0 -60 -37z" />
    <glyph glyph-name="glyph360" unicode="&#x1eef;" horiz-adv-x="512" 
d="M442 435v-236q0 -212 -186 -212t-186 212v271h80v-262q0 -71 17 -103q24 -44 89 -44t89 44q17 32 17 103v262l80 -5v1q20 15 20 28q0 14 -18 19q-14 2 -36 -1l38 32q27 4 47 -4q24 -10 24 -36q0 -45 -75 -69zM136 542l-21 27q68 60 110 60q18 0 50.5 -16.5t39.5 -16.5
q22 0 63 37l19 -26q-58 -62 -113 -62q-16 0 -45.5 16t-45.5 16q-22 0 -57 -35z" />
    <glyph glyph-name="glyph361" unicode="&#x1ef0;" horiz-adv-x="685" 
d="M612 711v-429q0 -70 -11 -112q-15 -55 -55 -97q-82 -86 -203 -86q-115 0 -195 77q-45 44 -62 101q-12 41 -12 117v472h84v-449q0 -65 3 -87q13 -95 98 -134q41 -19 84 -19q93 0 148 67q25 31 33 82q4 26 4 91v449l84 -5v-1q26 17 26 36q0 17 -23 23q-16 4 -44 -1l46 40
q33 4 57 -6q31 -13 31 -44q0 -55 -93 -85zM342 -60q22 0 37.5 -15t15.5 -37t-15.5 -38t-37.5 -16t-37.5 16t-15.5 38t15.5 37t37.5 15z" />
    <glyph glyph-name="glyph362" unicode="&#x1ef1;" horiz-adv-x="512" 
d="M442 435v-236q0 -212 -186 -212t-186 212v271h80v-262q0 -71 17 -103q24 -44 89 -44t89 44q17 32 17 103v262l80 -5v1q20 15 20 28q0 14 -18 19q-14 2 -36 -1l38 32q27 4 47 -4q24 -10 24 -36q0 -45 -75 -69zM257 -63q21 0 35.5 -14t14.5 -35t-14.5 -36t-35.5 -15
t-35.5 15t-14.5 36t14.5 35t35.5 14z" />
    <glyph glyph-name="glyph363" unicode="&#x1ef2;" horiz-adv-x="593" 
d="M255 324l-247 430h97l192 -336l192 336h97l-247 -430v-324h-84v324zM314 842l-15 -39l-166 109l52 53z" />
    <glyph glyph-name="glyph364" unicode="&#x1ef3;" horiz-adv-x="498" 
d="M214 44l-216 426h93l166 -337l152 337h91l-347 -734h-91zM272 555l-15 -37l-157 103l49 51z" />
    <glyph glyph-name="glyph365" unicode="&#x1ef4;" horiz-adv-x="593" 
d="M255 324l-247 430h97l192 -336l192 336h97l-247 -430v-324h-84v324zM298 -45q22 0 37.5 -15t15.5 -37t-15.5 -38t-37.5 -16t-37.5 16t-15.5 38t15.5 37t37.5 15z" />
    <glyph glyph-name="glyph366" unicode="&#x1ef5;" horiz-adv-x="498" 
d="M214 44l-216 426h93l166 -337l152 337h91l-347 -734h-91zM312 -63q21 0 35.5 -14t14.5 -35t-14.5 -36t-35.5 -15t-35.5 15t-14.5 36t14.5 35t35.5 14z" />
    <glyph glyph-name="glyph367" unicode="&#x1ef6;" horiz-adv-x="593" 
d="M255 324l-247 430h97l192 -336l192 336h97l-247 -430v-324h-84v324zM339 912q0 32 -36 32q-31 0 -31 -33q0 -7 3 -15l-28 12v17q0 25 21 43t46 18t46.5 -18t21.5 -42q0 -28 -18 -47q-7 -7 -42 -30q0 -21 1 -36l-24 -24l-23 21q-8 37 8 55q3 3 33 16q22 9 22 31z" />
    <glyph glyph-name="glyph368" unicode="&#x1ef7;" horiz-adv-x="498" 
d="M214 44l-216 426h93l166 -337l152 337h91l-347 -734h-91zM299 618q0 32 -36 32q-31 0 -31 -33q0 -7 3 -15l-28 12v17q0 25 21 43t46 18t46.5 -18t21.5 -42q0 -28 -18 -47q-7 -7 -42 -30v-32l-24 -24l-23 21q-2 11 -2 20q0 21 12 33q5 2 33 14q21 9 21 31z" />
    <glyph glyph-name="glyph369" unicode="&#x1ef8;" horiz-adv-x="593" 
d="M255 324l-247 430h97l192 -336l192 336h97l-247 -430v-324h-84v324zM172 813l-22 28q69 63 115 63q19 0 53 -17t42 -17q25 0 66 39l21 -28q-61 -65 -119 -65q-16 0 -49 17t-47 17q-23 0 -60 -37z" />
    <glyph glyph-name="glyph370" unicode="&#x1ef9;" horiz-adv-x="498" 
d="M214 44l-216 426h93l166 -337l152 337h91l-347 -734h-91zM136 532l-21 27q68 60 110 60q18 0 50.5 -16.5t39.5 -16.5q22 0 63 37l19 -26q-58 -62 -113 -62q-16 0 -45.5 16t-45.5 16q-22 0 -57 -35z" />
  </font>
</defs>
</svg>
